# MagicaVoxel @ Ephtracy

# group
o 

# material
mtllib nanchara_head.mtl
usemtl palette

# normals
vn -1 0 0
vn 1 0 0
vn 0 0 1
vn 0 0 -1
vn 0 -1 0
vn 0 1 0

# texcoords
vt 0.0644531 0.5
vt 0.0683594 0.5
vt 0.0917969 0.5
vt 0.306641 0.5
vt 0.958984 0.5
vt 0.978516 0.5
vt 0.994141 0.5

# verts
v -1.4 0.8 -0.2
v -1.4 0.8 -0.6
v -1.4 1.6 -0.2
v -1.4 1.6 -0.6
v -1.2 0.6 -0.2
v -1.2 0.6 -0.6
v -1.2 0.8 -0.2
v -1.2 0.8 -0.6
v -1.2 0.8 -0.8
v -1.2 1 -1.19209e-07
v -1.2 1 -0.2
v -1.2 1.6 -1.19209e-07
v -1.2 1.6 -0.2
v -1.2 1.6 -0.6
v -1.2 1.6 -0.8
v -1.2 1.8 -0.2
v -1.2 1.8 -0.6
v -1 0.4 -0.2
v -1 0.4 -0.6
v -1 0.6 -0.2
v -1 0.6 -0.6
v -1 0.6 -0.8
v -1 0.8 -1.19209e-07
v -1 0.8 -0.2
v -1 0.8 -0.6
v -1 0.8 -0.8
v -1 0.8 -1
v -1 1 -1.19209e-07
v -1 1 -0.2
v -1 1.6 -1.19209e-07
v -1 1.6 -0.2
v -1 1.6 -0.6
v -1 1.6 -0.8
v -1 1.6 -1
v -1 1.8 -1.19209e-07
v -1 1.8 -0.2
v -1 1.8 -0.6
v -1 1.8 -0.8
v -1 2 -0.2
v -1 2 -0.6
v -0.8 0.4 -0.6
v -0.8 0.4 -0.8
v -0.8 0.6 -0.6
v -0.8 0.6 -0.8
v -0.8 0.6 -1
v -0.8 0.8 -0.8
v -0.8 0.8 -1
v -0.8 0.8 -1.2
v -0.8 1.6 -0.8
v -0.8 1.6 -1
v -0.8 1.6 -1.2
v -0.8 1.8 -0.6
v -0.8 1.8 -0.8
v -0.8 1.8 -1
v -0.8 2 -0.6
v -0.8 2 -0.8
v -0.6 1 -1.19209e-07
v -0.6 1 -0.2
v -0.6 1 -1.2
v -0.6 1 -1.4
v -0.6 1.2 -0.2
v -0.6 1.4 -1.2
v -0.6 1.4 -1.4
v -0.6 1.6 -1.19209e-07
v -0.6 1.6 -0.2
v -0.4 1 0.8
v -0.4 1 -1.19209e-07
v -0.4 1.2 0.8
v -0.4 1.2 -1.19209e-07
v -0.2 0.8 0.8
v -0.2 0.8 -0.2
v -0.2 1 1.2
v -0.2 1 0.8
v -0.2 1 -0.2
v -0.2 1.2 0.8
v -0.2 1.2 -1.19209e-07
v -0.2 1.4 1.2
v -0.2 1.4 -1.19209e-07
v 0.4 1.4 -1.19209e-07
v 0.4 1.4 -0.2
v 0.4 1.8 -1.19209e-07
v 0.4 1.8 -0.2
v 0.6 0.8 -1.19209e-07
v 0.6 0.8 -0.2
v 0.6 1 -1.19209e-07
v 0.6 1 -0.2
v 1 1 -1.19209e-07
v 1 1 -0.2
v 1 1.2 -0.2
v 1 1.6 -1.19209e-07
v 1 1.6 -0.2
v -1 1 -1.19209e-07
v -1 1 -0.2
v -1 1.6 -1.19209e-07
v -1 1.6 -0.2
v -0.6 0.8 -1.19209e-07
v -0.6 0.8 -0.2
v -0.6 1 -1.19209e-07
v -0.6 1 -0.2
v -0.4 1.4 -1.19209e-07
v -0.4 1.4 -0.2
v -0.4 1.8 -1.19209e-07
v -0.4 1.8 -0.2
v 0.2 0.8 0.8
v 0.2 0.8 -0.2
v 0.2 1 1.2
v 0.2 1 0.8
v 0.2 1 -0.2
v 0.2 1.2 0.8
v 0.2 1.2 -1.19209e-07
v 0.2 1.4 1.2
v 0.2 1.4 -1.19209e-07
v 0.4 1 0.8
v 0.4 1 -1.19209e-07
v 0.4 1.2 0.8
v 0.4 1.2 -1.19209e-07
v 0.6 1 -1.19209e-07
v 0.6 1 -0.2
v 0.6 1 -1.2
v 0.6 1 -1.4
v 0.6 1.4 -1.2
v 0.6 1.4 -1.4
v 0.6 1.6 -1.19209e-07
v 0.6 1.6 -0.2
v 0.8 0.4 -0.6
v 0.8 0.4 -0.8
v 0.8 0.6 -0.6
v 0.8 0.6 -0.8
v 0.8 0.6 -1
v 0.8 0.8 -0.8
v 0.8 0.8 -1
v 0.8 0.8 -1.2
v 0.8 1.6 -0.8
v 0.8 1.6 -1
v 0.8 1.6 -1.2
v 0.8 1.8 -0.6
v 0.8 1.8 -0.8
v 0.8 1.8 -1
v 0.8 2 -0.6
v 0.8 2 -0.8
v 1 0.4 -0.2
v 1 0.4 -0.6
v 1 0.6 -0.2
v 1 0.6 -0.6
v 1 0.6 -0.8
v 1 0.8 -1.19209e-07
v 1 0.8 -0.2
v 1 0.8 -0.6
v 1 0.8 -0.8
v 1 0.8 -1
v 1 1 -1.19209e-07
v 1 1 -0.2
v 1 1.6 -1.19209e-07
v 1 1.6 -0.2
v 1 1.6 -0.6
v 1 1.6 -0.8
v 1 1.6 -1
v 1 1.8 -1.19209e-07
v 1 1.8 -0.2
v 1 1.8 -0.6
v 1 1.8 -0.8
v 1 2 -0.2
v 1 2 -0.6
v 1.2 0.6 -0.2
v 1.2 0.6 -0.6
v 1.2 0.8 -0.2
v 1.2 0.8 -0.6
v 1.2 0.8 -0.8
v 1.2 1 -1.19209e-07
v 1.2 1 -0.2
v 1.2 1.6 -1.19209e-07
v 1.2 1.6 -0.2
v 1.2 1.6 -0.6
v 1.2 1.6 -0.8
v 1.2 1.8 -0.2
v 1.2 1.8 -0.6
v 1.4 0.8 -0.2
v 1.4 0.8 -0.6
v 1.4 1.6 -0.2
v 1.4 1.6 -0.6
v -0.2 1 1.2
v -0.2 1.4 1.2
v 0.2 1 1.2
v 0.2 1.4 1.2
v -0.4 1 0.8
v -0.4 1.2 0.8
v -0.2 0.8 0.8
v -0.2 1 0.8
v -0.2 1.2 0.8
v 0.2 0.8 0.8
v 0.2 1 0.8
v 0.2 1.2 0.8
v 0.4 1 0.8
v 0.4 1.2 0.8
v -1.2 1 -1.19209e-07
v -1.2 1.6 -1.19209e-07
v -1 0.8 -1.19209e-07
v -1 1 -1.19209e-07
v -1 1.6 -1.19209e-07
v -1 1.8 -1.19209e-07
v -0.6 0.8 -1.19209e-07
v -0.6 1 -1.19209e-07
v -0.6 1.6 -1.19209e-07
v -0.4 1 -1.19209e-07
v -0.4 1.2 -1.19209e-07
v -0.4 1.4 -1.19209e-07
v -0.4 1.8 -1.19209e-07
v -0.2 1.2 -1.19209e-07
v -0.2 1.4 -1.19209e-07
v 0.2 1.2 -1.19209e-07
v 0.2 1.4 -1.19209e-07
v 0.4 1 -1.19209e-07
v 0.4 1.2 -1.19209e-07
v 0.4 1.4 -1.19209e-07
v 0.4 1.8 -1.19209e-07
v 0.6 0.8 -1.19209e-07
v 0.6 1 -1.19209e-07
v 0.6 1.6 -1.19209e-07
v 1 0.8 -1.19209e-07
v 1 1 -1.19209e-07
v 1 1.6 -1.19209e-07
v 1 1.8 -1.19209e-07
v 1.2 1 -1.19209e-07
v 1.2 1.6 -1.19209e-07
v -1.4 0.8 -0.2
v -1.4 1.6 -0.2
v -1.2 0.6 -0.2
v -1.2 0.8 -0.2
v -1.2 1 -0.2
v -1.2 1.6 -0.2
v -1.2 1.8 -0.2
v -1 0.4 -0.2
v -1 0.6 -0.2
v -1 0.8 -0.2
v -1 1 -0.2
v -1 1.6 -0.2
v -1 1.8 -0.2
v -1 2 -0.2
v -0.8 1.2 -0.2
v -0.8 1.6 -0.2
v -0.6 0.8 -0.2
v -0.6 1 -0.2
v -0.6 1.2 -0.2
v -0.6 1.6 -0.2
v -0.4 1 -0.2
v -0.4 1.4 -0.2
v -0.4 1.8 -0.2
v -0.2 0.8 -0.2
v -0.2 1 -0.2
v -0.2 1.4 -0.2
v 0 1.4 -0.2
v 0 1.6 -0.2
v 0.2 0.8 -0.2
v 0.2 1 -0.2
v 0.2 1.4 -0.2
v 0.2 1.6 -0.2
v 0.4 1 -0.2
v 0.4 1.4 -0.2
v 0.4 1.8 -0.2
v 0.6 0.8 -0.2
v 0.6 1 -0.2
v 0.6 1.6 -0.2
v 0.8 1.2 -0.2
v 0.8 1.6 -0.2
v 1 0.4 -0.2
v 1 0.6 -0.2
v 1 0.8 -0.2
v 1 1 -0.2
v 1 1.2 -0.2
v 1 1.6 -0.2
v 1 1.8 -0.2
v 1 2 -0.2
v 1.2 0.6 -0.2
v 1.2 0.8 -0.2
v 1.2 1 -0.2
v 1.2 1.6 -0.2
v 1.2 1.8 -0.2
v 1.4 0.8 -0.2
v 1.4 1.6 -0.2
v -1.4 0.8 -0.6
v -1.4 1.6 -0.6
v -1.2 0.6 -0.6
v -1.2 0.8 -0.6
v -1.2 1.6 -0.6
v -1.2 1.8 -0.6
v -1 0.4 -0.6
v -1 0.6 -0.6
v -1 0.8 -0.6
v -1 1.6 -0.6
v -1 1.8 -0.6
v -1 2 -0.6
v -0.8 0.4 -0.6
v -0.8 0.6 -0.6
v -0.8 1.8 -0.6
v -0.8 2 -0.6
v 0.8 0.4 -0.6
v 0.8 0.6 -0.6
v 0.8 1.8 -0.6
v 0.8 2 -0.6
v 1 0.4 -0.6
v 1 0.6 -0.6
v 1 0.8 -0.6
v 1 1.6 -0.6
v 1 1.8 -0.6
v 1 2 -0.6
v 1.2 0.6 -0.6
v 1.2 0.8 -0.6
v 1.2 1.6 -0.6
v 1.2 1.8 -0.6
v 1.4 0.8 -0.6
v 1.4 1.6 -0.6
v -1.2 0.8 -0.8
v -1.2 1.6 -0.8
v -1 0.6 -0.8
v -1 0.8 -0.8
v -1 1.6 -0.8
v -1 1.8 -0.8
v -0.8 0.4 -0.8
v -0.8 0.6 -0.8
v -0.8 0.8 -0.8
v -0.8 1.6 -0.8
v -0.8 1.8 -0.8
v -0.8 2 -0.8
v 0.8 0.4 -0.8
v 0.8 0.6 -0.8
v 0.8 0.8 -0.8
v 0.8 1.6 -0.8
v 0.8 1.8 -0.8
v 0.8 2 -0.8
v 1 0.6 -0.8
v 1 0.8 -0.8
v 1 1.6 -0.8
v 1 1.8 -0.8
v 1.2 0.8 -0.8
v 1.2 1.6 -0.8
v -1 0.8 -1
v -1 1.6 -1
v -0.8 0.6 -1
v -0.8 0.8 -1
v -0.8 1.6 -1
v -0.8 1.8 -1
v 0.8 0.6 -1
v 0.8 0.8 -1
v 0.8 1.6 -1
v 0.8 1.8 -1
v 1 0.8 -1
v 1 1.6 -1
v -0.8 0.8 -1.2
v -0.8 1.6 -1.2
v -0.6 1 -1.2
v -0.6 1.4 -1.2
v 0.6 1 -1.2
v 0.6 1.4 -1.2
v 0.8 0.8 -1.2
v 0.8 1.6 -1.2
v -0.6 1 -1.4
v -0.6 1.4 -1.4
v 0.6 1 -1.4
v 0.6 1.4 -1.4
v -1 0.4 -0.2
v 1 0.4 -0.2
v 0.6 0.4 -0.4
v 0.8 0.4 -0.4
v -1 0.4 -0.6
v -0.8 0.4 -0.6
v 0.6 0.4 -0.6
v 0.8 0.4 -0.6
v 1 0.4 -0.6
v -0.8 0.4 -0.8
v 0.8 0.4 -0.8
v -1.2 0.6 -0.2
v -1 0.6 -0.2
v 1 0.6 -0.2
v 1.2 0.6 -0.2
v -1.2 0.6 -0.6
v -1 0.6 -0.6
v -0.8 0.6 -0.6
v 0.8 0.6 -0.6
v 1 0.6 -0.6
v 1.2 0.6 -0.6
v -1 0.6 -0.8
v -0.8 0.6 -0.8
v 0.8 0.6 -0.8
v 1 0.6 -0.8
v -0.8 0.6 -1
v 0.8 0.6 -1
v -0.2 0.8 0.8
v 0.2 0.8 0.8
v -1 0.8 -1.19209e-07
v -0.6 0.8 -1.19209e-07
v 0.6 0.8 -1.19209e-07
v 1 0.8 -1.19209e-07
v -1.4 0.8 -0.2
v -1.2 0.8 -0.2
v -1 0.8 -0.2
v -0.6 0.8 -0.2
v -0.2 0.8 -0.2
v 0.2 0.8 -0.2
v 0.6 0.8 -0.2
v 1 0.8 -0.2
v 1.2 0.8 -0.2
v 1.4 0.8 -0.2
v -1.4 0.8 -0.6
v -1.2 0.8 -0.6
v -1 0.8 -0.6
v 1 0.8 -0.6
v 1.2 0.8 -0.6
v 1.4 0.8 -0.6
v -1.2 0.8 -0.8
v -1 0.8 -0.8
v -0.8 0.8 -0.8
v 0.8 0.8 -0.8
v 1 0.8 -0.8
v 1.2 0.8 -0.8
v -1 0.8 -1
v -0.8 0.8 -1
v 0.8 0.8 -1
v 1 0.8 -1
v -0.8 0.8 -1.2
v 0.8 0.8 -1.2
v -0.2 1 1.2
v 0.2 1 1.2
v -0.4 1 0.8
v -0.2 1 0.8
v 0.2 1 0.8
v 0.4 1 0.8
v -1.2 1 -1.19209e-07
v -1 1 -1.19209e-07
v -0.6 1 -1.19209e-07
v -0.4 1 -1.19209e-07
v 0.4 1 -1.19209e-07
v 0.6 1 -1.19209e-07
v 1 1 -1.19209e-07
v 1.2 1 -1.19209e-07
v -1.2 1 -0.2
v -1 1 -0.2
v -0.6 1 -0.2
v -0.4 1 -0.2
v -0.2 1 -0.2
v 0.2 1 -0.2
v 0.4 1 -0.2
v 0.6 1 -0.2
v 1 1 -0.2
v 1.2 1 -0.2
v -0.6 1 -1.2
v 0.6 1 -1.2
v -0.6 1 -1.4
v 0.6 1 -1.4
v -1 1.6 -1.19209e-07
v -0.6 1.6 -1.19209e-07
v 0.6 1.6 -1.19209e-07
v 1 1.6 -1.19209e-07
v -1 1.6 -0.2
v -0.8 1.6 -0.2
v -0.6 1.6 -0.2
v 0.6 1.6 -0.2
v 0.8 1.6 -0.2
v 1 1.6 -0.2
v -1 1 -1.19209e-07
v -0.6 1 -1.19209e-07
v 0.6 1 -1.19209e-07
v 1 1 -1.19209e-07
v -1 1 -0.2
v -0.6 1 -0.2
v 0.6 1 -0.2
v 1 1 -0.2
v -0.4 1.2 0.8
v -0.2 1.2 0.8
v 0.2 1.2 0.8
v 0.4 1.2 0.8
v -0.4 1.2 -1.19209e-07
v -0.2 1.2 -1.19209e-07
v 0.2 1.2 -1.19209e-07
v 0.4 1.2 -1.19209e-07
v -0.2 1.4 1.2
v 0.2 1.4 1.2
v -0.4 1.4 -1.19209e-07
v -0.2 1.4 -1.19209e-07
v 0.2 1.4 -1.19209e-07
v 0.4 1.4 -1.19209e-07
v -0.4 1.4 -0.2
v -0.2 1.4 -0.2
v 0 1.4 -0.2
v 0.2 1.4 -0.2
v 0.4 1.4 -0.2
v -0.6 1.4 -1.2
v 0.6 1.4 -1.2
v -0.6 1.4 -1.4
v 0.6 1.4 -1.4
v -1.2 1.6 -1.19209e-07
v -1 1.6 -1.19209e-07
v 1 1.6 -1.19209e-07
v 1.2 1.6 -1.19209e-07
v -1.4 1.6 -0.2
v -1.2 1.6 -0.2
v -1 1.6 -0.2
v 1 1.6 -0.2
v 1.2 1.6 -0.2
v 1.4 1.6 -0.2
v -1.4 1.6 -0.6
v -1.2 1.6 -0.6
v -1 1.6 -0.6
v 1 1.6 -0.6
v 1.2 1.6 -0.6
v 1.4 1.6 -0.6
v -1.2 1.6 -0.8
v -1 1.6 -0.8
v -0.8 1.6 -0.8
v 0.8 1.6 -0.8
v 1 1.6 -0.8
v 1.2 1.6 -0.8
v -1 1.6 -1
v -0.8 1.6 -1
v 0.8 1.6 -1
v 1 1.6 -1
v -0.8 1.6 -1.2
v 0.8 1.6 -1.2
v -1 1.8 -1.19209e-07
v -0.4 1.8 -1.19209e-07
v 0.4 1.8 -1.19209e-07
v 1 1.8 -1.19209e-07
v -1.2 1.8 -0.2
v -1 1.8 -0.2
v -0.4 1.8 -0.2
v 0.4 1.8 -0.2
v 1 1.8 -0.2
v 1.2 1.8 -0.2
v -1.2 1.8 -0.6
v -1 1.8 -0.6
v -0.8 1.8 -0.6
v 0.8 1.8 -0.6
v 1 1.8 -0.6
v 1.2 1.8 -0.6
v -1 1.8 -0.8
v -0.8 1.8 -0.8
v 0.8 1.8 -0.8
v 1 1.8 -0.8
v -0.8 1.8 -1
v 0.8 1.8 -1
v -1 2 -0.2
v 1 2 -0.2
v -1 2 -0.6
v -0.8 2 -0.6
v 0.8 2 -0.6
v 1 2 -0.6
v -0.8 2 -0.8
v 0.8 2 -0.8

# faces
f 3/2/1 2/2/1 1/2/1
f 4/2/1 2/2/1 3/2/1
f 7/2/1 6/2/1 5/2/1
f 8/2/1 6/2/1 7/2/1
f 12/6/1 11/6/1 10/6/1
f 13/6/1 11/6/1 12/6/1
f 14/2/1 9/2/1 8/2/1
f 15/2/1 9/2/1 14/2/1
f 16/2/1 14/2/1 13/2/1
f 17/2/1 14/2/1 16/2/1
f 20/2/1 19/2/1 18/2/1
f 21/2/1 19/2/1 20/2/1
f 25/2/1 22/2/1 21/2/1
f 26/2/1 22/2/1 25/2/1
f 28/6/1 24/6/1 23/6/1
f 29/6/1 24/6/1 28/6/1
f 33/2/1 27/2/1 26/2/1
f 34/2/1 27/2/1 33/2/1
f 35/6/1 31/6/1 30/6/1
f 36/6/1 31/6/1 35/6/1
f 37/2/1 33/2/1 32/2/1
f 38/2/1 33/2/1 37/2/1
f 39/2/1 37/2/1 36/2/1
f 40/2/1 37/2/1 39/2/1
f 43/2/1 42/2/1 41/2/1
f 44/2/1 42/2/1 43/2/1
f 46/2/1 45/2/1 44/2/1
f 47/2/1 45/2/1 46/2/1
f 50/2/1 48/2/1 47/2/1
f 51/2/1 48/2/1 50/2/1
f 53/2/1 50/2/1 49/2/1
f 54/2/1 50/2/1 53/2/1
f 55/2/1 53/2/1 52/2/1
f 56/2/1 53/2/1 55/2/1
f 61/6/1 58/6/1 57/6/1
f 62/2/1 60/2/1 59/2/1
f 63/2/1 60/2/1 62/2/1
f 64/6/1 61/6/1 57/6/1
f 65/6/1 61/6/1 64/6/1
f 68/3/1 67/3/1 66/3/1
f 69/3/1 67/3/1 68/3/1
f 73/3/1 71/3/1 70/3/1
f 74/3/1 71/3/1 73/3/1
f 75/3/1 73/3/1 72/3/1
f 77/3/1 75/3/1 72/3/1
f 77/3/1 76/3/1 75/3/1
f 78/3/1 76/3/1 77/3/1
f 81/6/1 80/6/1 79/6/1
f 82/6/1 80/6/1 81/6/1
f 85/6/1 84/6/1 83/6/1
f 86/6/1 84/6/1 85/6/1
f 89/6/1 88/6/1 87/6/1
f 90/6/1 89/6/1 87/6/1
f 91/6/1 89/6/1 90/6/1
f 92/6/2 93/6/2 94/6/2
f 94/6/2 93/6/2 95/6/2
f 96/6/2 97/6/2 98/6/2
f 98/6/2 97/6/2 99/6/2
f 100/6/2 101/6/2 102/6/2
f 102/6/2 101/6/2 103/6/2
f 104/3/2 105/3/2 107/3/2
f 107/3/2 105/3/2 108/3/2
f 106/3/2 107/3/2 109/3/2
f 106/3/2 109/3/2 111/3/2
f 109/3/2 110/3/2 111/3/2
f 111/3/2 110/3/2 112/3/2
f 113/3/2 114/3/2 115/3/2
f 115/3/2 114/3/2 116/3/2
f 119/2/2 120/2/2 121/2/2
f 121/2/2 120/2/2 122/2/2
f 117/6/2 118/6/2 123/6/2
f 123/6/2 118/6/2 124/6/2
f 125/2/2 126/2/2 127/2/2
f 127/2/2 126/2/2 128/2/2
f 128/2/2 129/2/2 130/2/2
f 130/2/2 129/2/2 131/2/2
f 131/2/2 132/2/2 134/2/2
f 134/2/2 132/2/2 135/2/2
f 133/2/2 134/2/2 137/2/2
f 137/2/2 134/2/2 138/2/2
f 136/2/2 137/2/2 139/2/2
f 139/2/2 137/2/2 140/2/2
f 141/2/2 142/2/2 143/2/2
f 143/2/2 142/2/2 144/2/2
f 144/2/2 145/2/2 148/2/2
f 148/2/2 145/2/2 149/2/2
f 146/6/2 147/6/2 151/6/2
f 151/6/2 147/6/2 152/6/2
f 149/2/2 150/2/2 156/2/2
f 156/2/2 150/2/2 157/2/2
f 153/6/2 154/6/2 158/6/2
f 158/6/2 154/6/2 159/6/2
f 155/2/2 156/2/2 160/2/2
f 160/2/2 156/2/2 161/2/2
f 159/2/2 160/2/2 162/2/2
f 162/2/2 160/2/2 163/2/2
f 164/2/2 165/2/2 166/2/2
f 166/2/2 165/2/2 167/2/2
f 169/6/2 170/6/2 171/6/2
f 171/6/2 170/6/2 172/6/2
f 167/2/2 168/2/2 173/2/2
f 173/2/2 168/2/2 174/2/2
f 172/2/2 173/2/2 175/2/2
f 175/2/2 173/2/2 176/2/2
f 177/2/2 178/2/2 179/2/2
f 179/2/2 178/2/2 180/2/2
f 183/3/3 182/3/3 181/3/3
f 184/3/3 182/3/3 183/3/3
f 188/3/3 186/3/3 185/3/3
f 189/3/3 186/3/3 188/3/3
f 190/3/3 188/3/3 187/3/3
f 191/3/3 188/3/3 190/3/3
f 193/3/3 192/3/3 191/3/3
f 194/3/3 192/3/3 193/3/3
f 198/6/3 196/6/3 195/6/3
f 199/6/3 196/6/3 198/6/3
f 201/6/3 198/6/3 197/6/3
f 202/6/3 198/6/3 201/6/3
f 203/6/3 200/6/3 199/6/3
f 204/6/3 203/6/3 202/6/3
f 205/6/3 203/6/3 204/6/3
f 206/6/3 203/6/3 205/6/3
f 207/6/3 200/6/3 203/6/3
f 207/6/3 203/6/3 206/6/3
f 208/6/3 206/6/3 205/6/3
f 209/6/3 206/6/3 208/6/3
f 213/6/3 211/6/3 210/6/3
f 214/6/3 211/6/3 213/6/3
f 217/6/3 214/6/3 213/6/3
f 217/6/3 215/6/3 214/6/3
f 217/6/3 213/6/3 212/6/3
f 218/6/3 215/6/3 217/6/3
f 219/6/3 217/6/3 216/6/3
f 220/6/3 217/6/3 219/6/3
f 221/6/3 215/6/3 218/6/3
f 222/6/3 215/6/3 221/6/3
f 223/6/3 221/6/3 220/6/3
f 224/6/3 221/6/3 223/6/3
f 228/2/3 226/2/3 225/2/3
f 229/2/3 226/2/3 228/2/3
f 230/2/3 226/2/3 229/2/3
f 233/2/3 228/2/3 227/2/3
f 233/2/3 229/2/3 228/2/3
f 234/2/3 229/2/3 233/2/3
f 235/2/3 229/2/3 234/2/3
f 236/2/3 231/2/3 230/2/3
f 237/2/3 231/2/3 236/2/3
f 239/5/3 236/5/3 235/5/3
f 240/5/3 236/5/3 239/5/3
f 241/2/3 233/2/3 232/2/3
f 241/2/3 234/2/3 233/2/3
f 242/5/3 239/5/3 235/5/3
f 243/7/3 240/7/3 239/7/3
f 243/5/3 239/5/3 242/5/3
f 244/7/3 240/7/3 243/7/3
f 245/2/3 242/2/3 241/2/3
f 247/2/3 238/2/3 237/2/3
f 248/2/3 245/2/3 241/2/3
f 248/2/3 241/2/3 232/2/3
f 249/2/3 245/2/3 248/2/3
f 250/2/3 247/2/3 246/2/3
f 251/2/3 247/2/3 250/2/3
f 252/2/3 247/2/3 251/2/3
f 253/2/3 248/2/3 232/2/3
f 255/1/3 252/1/3 251/1/3
f 256/2/3 247/2/3 252/2/3
f 256/1/3 252/1/3 255/1/3
f 257/2/3 254/2/3 253/2/3
f 258/2/3 256/2/3 255/2/3
f 259/2/3 238/2/3 247/2/3
f 259/2/3 256/2/3 258/2/3
f 259/2/3 247/2/3 256/2/3
f 260/2/3 257/2/3 253/2/3
f 260/2/3 253/2/3 232/2/3
f 261/2/3 257/2/3 260/2/3
f 263/5/3 262/5/3 261/5/3
f 264/5/3 262/5/3 263/5/3
f 265/2/3 260/2/3 232/2/3
f 266/2/3 260/2/3 265/2/3
f 267/2/3 260/2/3 266/2/3
f 268/5/3 263/5/3 261/5/3
f 269/7/3 264/7/3 263/7/3
f 269/5/3 263/5/3 268/5/3
f 270/7/3 264/7/3 269/7/3
f 271/2/3 238/2/3 259/2/3
f 272/2/3 238/2/3 271/2/3
f 273/2/3 267/2/3 266/2/3
f 273/2/3 268/2/3 267/2/3
f 274/2/3 268/2/3 273/2/3
f 275/2/3 268/2/3 274/2/3
f 276/2/3 271/2/3 270/2/3
f 277/2/3 271/2/3 276/2/3
f 278/2/3 275/2/3 274/2/3
f 278/2/3 276/2/3 275/2/3
f 279/2/3 276/2/3 278/2/3
f 280/2/4 281/2/4 283/2/4
f 283/2/4 281/2/4 284/2/4
f 282/2/4 283/2/4 287/2/4
f 287/2/4 283/2/4 288/2/4
f 284/2/4 285/2/4 289/2/4
f 289/2/4 285/2/4 290/2/4
f 286/2/4 287/2/4 292/2/4
f 292/2/4 287/2/4 293/2/4
f 290/2/4 291/2/4 294/2/4
f 294/2/4 291/2/4 295/2/4
f 296/2/4 297/2/4 300/2/4
f 300/2/4 297/2/4 301/2/4
f 298/2/4 299/2/4 304/2/4
f 304/2/4 299/2/4 305/2/4
f 301/2/4 302/2/4 306/2/4
f 306/2/4 302/2/4 307/2/4
f 303/2/4 304/2/4 308/2/4
f 308/2/4 304/2/4 309/2/4
f 307/2/4 308/2/4 310/2/4
f 310/2/4 308/2/4 311/2/4
f 312/2/4 313/2/4 315/2/4
f 315/2/4 313/2/4 316/2/4
f 314/2/4 315/2/4 319/2/4
f 319/2/4 315/2/4 320/2/4
f 316/2/4 317/2/4 321/2/4
f 321/2/4 317/2/4 322/2/4
f 318/2/4 319/2/4 324/2/4
f 324/2/4 319/2/4 325/2/4
f 322/2/4 323/2/4 328/2/4
f 328/2/4 323/2/4 329/2/4
f 325/2/4 326/2/4 330/2/4
f 330/2/4 326/2/4 331/2/4
f 327/2/4 328/2/4 332/2/4
f 332/2/4 328/2/4 333/2/4
f 331/2/4 332/2/4 334/2/4
f 334/2/4 332/2/4 335/2/4
f 336/2/4 337/2/4 339/2/4
f 339/2/4 337/2/4 340/2/4
f 338/2/4 339/2/4 342/2/4
f 342/2/4 339/2/4 343/2/4
f 340/2/4 341/2/4 344/2/4
f 344/2/4 341/2/4 345/2/4
f 343/2/4 344/2/4 346/2/4
f 346/2/4 344/2/4 347/2/4
f 348/2/4 349/2/4 350/2/4
f 350/2/4 349/2/4 351/2/4
f 348/2/4 350/2/4 352/2/4
f 351/2/4 349/2/4 353/2/4
f 348/2/4 352/2/4 354/2/4
f 352/2/4 353/2/4 354/2/4
f 353/2/4 349/2/4 355/2/4
f 354/2/4 353/2/4 355/2/4
f 356/2/4 357/2/4 358/2/4
f 358/2/4 357/2/4 359/2/4
f 362/2/5 361/2/5 360/2/5
f 363/2/5 361/2/5 362/2/5
f 364/2/5 362/2/5 360/2/5
f 365/2/5 362/2/5 364/2/5
f 366/4/5 363/4/5 362/4/5
f 366/2/5 362/2/5 365/2/5
f 367/2/5 361/2/5 363/2/5
f 367/4/5 363/4/5 366/4/5
f 368/2/5 361/2/5 367/2/5
f 369/2/5 366/2/5 365/2/5
f 369/2/5 367/2/5 366/2/5
f 370/2/5 367/2/5 369/2/5
f 375/2/5 372/2/5 371/2/5
f 376/2/5 372/2/5 375/2/5
f 379/2/5 374/2/5 373/2/5
f 380/2/5 374/2/5 379/2/5
f 381/2/5 377/2/5 376/2/5
f 382/2/5 377/2/5 381/2/5
f 383/2/5 379/2/5 378/2/5
f 384/2/5 379/2/5 383/2/5
f 385/2/5 383/2/5 382/2/5
f 386/2/5 383/2/5 385/2/5
f 395/6/5 390/6/5 389/6/5
f 396/6/5 390/6/5 395/6/5
f 397/3/5 388/3/5 387/3/5
f 398/3/5 388/3/5 397/3/5
f 399/6/5 392/6/5 391/6/5
f 400/6/5 392/6/5 399/6/5
f 403/2/5 394/2/5 393/2/5
f 404/2/5 394/2/5 403/2/5
f 407/2/5 402/2/5 401/2/5
f 408/2/5 402/2/5 407/2/5
f 409/2/5 405/2/5 404/2/5
f 410/2/5 405/2/5 409/2/5
f 413/2/5 407/2/5 406/2/5
f 414/2/5 407/2/5 413/2/5
f 415/2/5 411/2/5 410/2/5
f 416/2/5 411/2/5 415/2/5
f 417/2/5 413/2/5 412/2/5
f 418/2/5 413/2/5 417/2/5
f 419/2/5 417/2/5 416/2/5
f 420/2/5 417/2/5 419/2/5
f 424/3/5 422/3/5 421/3/5
f 425/3/5 422/3/5 424/3/5
f 430/3/5 424/3/5 423/3/5
f 431/3/5 426/3/5 425/3/5
f 435/6/5 428/6/5 427/6/5
f 436/6/5 428/6/5 435/6/5
f 437/6/5 430/6/5 429/6/5
f 438/3/5 424/3/5 430/3/5
f 438/6/5 430/6/5 437/6/5
f 439/3/5 424/3/5 438/3/5
f 440/3/5 431/3/5 425/3/5
f 441/6/5 432/6/5 431/6/5
f 441/3/5 431/3/5 440/3/5
f 442/6/5 432/6/5 441/6/5
f 443/6/5 434/6/5 433/6/5
f 444/6/5 434/6/5 443/6/5
f 447/2/5 446/2/5 445/2/5
f 448/2/5 446/2/5 447/2/5
f 453/6/5 450/6/5 449/6/5
f 454/6/5 450/6/5 453/6/5
f 455/6/5 450/6/5 454/6/5
f 456/6/5 452/6/5 451/6/5
f 457/6/5 452/6/5 456/6/5
f 458/6/5 452/6/5 457/6/5
f 459/6/6 460/6/6 463/6/6
f 463/6/6 460/6/6 464/6/6
f 461/6/6 462/6/6 465/6/6
f 465/6/6 462/6/6 466/6/6
f 467/3/6 468/3/6 471/3/6
f 471/3/6 468/3/6 472/3/6
f 469/3/6 470/3/6 473/3/6
f 473/3/6 470/3/6 474/3/6
f 475/3/6 476/3/6 478/3/6
f 478/3/6 476/3/6 479/3/6
f 477/6/6 478/6/6 481/6/6
f 478/3/6 479/3/6 482/3/6
f 481/6/6 478/6/6 482/6/6
f 482/3/6 479/3/6 483/3/6
f 479/6/6 480/6/6 484/6/6
f 483/3/6 479/3/6 484/3/6
f 484/6/6 480/6/6 485/6/6
f 486/2/6 487/2/6 488/2/6
f 488/2/6 487/2/6 489/2/6
f 490/6/6 491/6/6 495/6/6
f 495/6/6 491/6/6 496/6/6
f 492/6/6 493/6/6 497/6/6
f 497/6/6 493/6/6 498/6/6
f 494/2/6 495/2/6 500/2/6
f 500/2/6 495/2/6 501/2/6
f 498/2/6 499/2/6 504/2/6
f 504/2/6 499/2/6 505/2/6
f 501/2/6 502/2/6 506/2/6
f 506/2/6 502/2/6 507/2/6
f 503/2/6 504/2/6 510/2/6
f 510/2/6 504/2/6 511/2/6
f 507/2/6 508/2/6 512/2/6
f 512/2/6 508/2/6 513/2/6
f 509/2/6 510/2/6 514/2/6
f 514/2/6 510/2/6 515/2/6
f 513/2/6 514/2/6 516/2/6
f 516/2/6 514/2/6 517/2/6
f 518/6/6 519/6/6 523/6/6
f 523/6/6 519/6/6 524/6/6
f 520/6/6 521/6/6 525/6/6
f 525/6/6 521/6/6 526/6/6
f 522/2/6 523/2/6 528/2/6
f 528/2/6 523/2/6 529/2/6
f 526/2/6 527/2/6 532/2/6
f 532/2/6 527/2/6 533/2/6
f 529/2/6 530/2/6 534/2/6
f 534/2/6 530/2/6 535/2/6
f 531/2/6 532/2/6 536/2/6
f 536/2/6 532/2/6 537/2/6
f 535/2/6 536/2/6 538/2/6
f 538/2/6 536/2/6 539/2/6
f 540/2/6 541/2/6 542/2/6
f 542/2/6 541/2/6 543/2/6
f 543/2/6 541/2/6 544/2/6
f 544/2/6 541/2/6 545/2/6
f 543/2/6 544/2/6 546/2/6
f 546/2/6 544/2/6 547/2/6
