# MagicaVoxel @ Ephtracy

# group
o 

# material
mtllib milkpac.mtl
usemtl palette

# normals
vn -1 0 0
vn 1 0 0
vn 0 0 1
vn 0 0 -1
vn 0 -1 0
vn 0 1 0

# texcoords
vt 0.900391 0.5
vt 0.962891 0.5
vt 0.994141 0.5

# verts
v -1.8 0 1.8
v -1.8 0 -1.8
v -1.8 1.2 1.2
v -1.8 1.2 1.1
v -1.8 1.2 1
v -1.8 1.2 0.9
v -1.8 1.2 0.8
v -1.8 1.2 0.6
v -1.8 1.2 0.5
v -1.8 1.2 0.4
v -1.8 1.2 0.3
v -1.8 1.2 0.2
v -1.8 1.2 0.1
v -1.8 1.2 1.19209e-07
v -1.8 1.2 -0.0999999
v -1.8 1.2 -0.2
v -1.8 1.2 -0.3
v -1.8 1.2 -0.4
v -1.8 1.2 -0.5
v -1.8 1.2 -0.7
v -1.8 1.2 -0.9
v -1.8 1.2 -1
v -1.8 1.2 -1.1
v -1.8 1.2 -1.2
v -1.8 2.1 1.2
v -1.8 2.1 1.1
v -1.8 2.1 1
v -1.8 2.1 0.9
v -1.8 2.1 0.8
v -1.8 2.1 0.6
v -1.8 2.1 0.5
v -1.8 2.1 0.4
v -1.8 2.1 0.3
v -1.8 2.1 0.2
v -1.8 2.1 0.1
v -1.8 2.1 1.19209e-07
v -1.8 2.1 -0.0999999
v -1.8 2.1 -0.2
v -1.8 2.1 -0.3
v -1.8 2.1 -0.4
v -1.8 2.1 -0.5
v -1.8 2.1 -0.7
v -1.8 2.1 -0.9
v -1.8 2.1 -1
v -1.8 2.1 -1.1
v -1.8 2.1 -1.2
v -1.8 3.9 1.2
v -1.8 3.9 -1.2
v -1.8 8.7 1.2
v -1.8 8.7 -1.2
v -1.8 9.6 1.8
v -1.8 9.6 1.5
v -1.8 9.6 1.2
v -1.8 9.6 -1.2
v -1.8 9.6 -1.5
v -1.8 9.6 -1.8
v -1.8 9.9 1.2
v -1.8 9.9 0.9
v -1.8 9.9 -0.9
v -1.8 9.9 -1.2
v -1.8 10.2 1.5
v -1.8 10.2 1.2
v -1.8 10.2 0.9
v -1.8 10.2 0.6
v -1.8 10.2 -0.6
v -1.8 10.2 -0.9
v -1.8 10.2 -1.2
v -1.8 10.2 -1.5
v -1.8 10.5 1.2
v -1.8 10.5 0.9
v -1.8 10.5 0.6
v -1.8 10.5 0.3
v -1.8 10.5 -0.3
v -1.8 10.5 -0.6
v -1.8 10.5 -0.9
v -1.8 10.5 -1.2
v -1.8 10.8 0.9
v -1.8 10.8 0.6
v -1.8 10.8 0.3
v -1.8 10.8 -0.3
v -1.8 10.8 -0.6
v -1.8 10.8 -0.9
v -1.8 11.1 0.6
v -1.8 11.1 -0.6
v -1.5 9.6 1.2
v -1.5 9.6 -1.2
v -1.5 9.9 1.2
v -1.5 9.9 0.9
v -1.5 9.9 -0.9
v -1.5 9.9 -1.2
v -1.2 9.9 0.9
v -1.2 9.9 -0.9
v -1.2 10.2 0.9
v -1.2 10.2 0.6
v -1.2 10.2 -0.6
v -1.2 10.2 -0.9
v -0.9 10.2 0.6
v -0.9 10.2 -0.6
v -0.9 10.5 0.6
v -0.9 10.5 0.3
v -0.9 10.5 -0.3
v -0.9 10.5 -0.6
v -0.9 10.8 0.3
v -0.9 10.8 -0.3
v 0.9 10.2 0.6
v 0.9 10.2 -0.6
v 0.9 10.5 0.6
v 0.9 10.5 0.3
v 0.9 10.5 -0.3
v 0.9 10.5 -0.6
v 0.9 10.8 0.3
v 0.9 10.8 -0.3
v 1.2 9.9 0.9
v 1.2 9.9 -0.9
v 1.2 10.2 0.9
v 1.2 10.2 0.6
v 1.2 10.2 -0.6
v 1.2 10.2 -0.9
v 1.5 9.6 1.2
v 1.5 9.6 -1.2
v 1.5 9.9 1.2
v 1.5 9.9 0.9
v 1.5 9.9 -0.9
v 1.5 9.9 -1.2
v 1.8 0 1.8
v 1.8 0 -1.8
v 1.8 1.2 1.2
v 1.8 1.2 1.19209e-07
v 1.8 4.8 -0.6
v 1.8 4.8 -1.2
v 1.8 6.3 1.2
v 1.8 6.3 1.19209e-07
v 1.8 8.7 -0.6
v 1.8 8.7 -1.2
v 1.8 9.6 1.8
v 1.8 9.6 1.5
v 1.8 9.6 1.2
v 1.8 9.6 -1.2
v 1.8 9.6 -1.5
v 1.8 9.6 -1.8
v 1.8 9.9 1.2
v 1.8 9.9 0.9
v 1.8 9.9 -0.9
v 1.8 9.9 -1.2
v 1.8 10.2 1.5
v 1.8 10.2 1.2
v 1.8 10.2 0.9
v 1.8 10.2 0.6
v 1.8 10.2 -0.6
v 1.8 10.2 -0.9
v 1.8 10.2 -1.2
v 1.8 10.2 -1.5
v 1.8 10.5 1.2
v 1.8 10.5 0.9
v 1.8 10.5 0.6
v 1.8 10.5 0.3
v 1.8 10.5 -0.3
v 1.8 10.5 -0.6
v 1.8 10.5 -0.9
v 1.8 10.5 -1.2
v 1.8 10.8 0.9
v 1.8 10.8 0.6
v 1.8 10.8 0.3
v 1.8 10.8 -0.3
v 1.8 10.8 -0.6
v 1.8 10.8 -0.9
v 1.8 11.1 0.6
v 1.8 11.1 -0.6
v -1.8 0 1.8
v -1.8 9.6 1.8
v -1.2 0.9 1.8
v -1.2 9 1.8
v -0.8 7 1.8
v -0.8 8.4 1.8
v -0.6 1 1.8
v -0.6 2.5 1.8
v -0.6 3 1.8
v -0.6 4.5 1.8
v -0.6 7 1.8
v -0.6 8 1.8
v -0.5 7.8 1.8
v -0.5 8 1.8
v -0.5 8.3 1.8
v -0.5 8.4 1.8
v -0.4 1 1.8
v -0.4 1.6 1.8
v -0.4 1.9 1.8
v -0.4 2.5 1.8
v -0.4 3.2 1.8
v -0.4 4.5 1.8
v -0.4 5 1.8
v -0.4 5.2 1.8
v -0.4 6.3 1.8
v -0.4 6.5 1.8
v -0.4 7.7 1.8
v -0.4 7.8 1.8
v -0.4 8.1 1.8
v -0.4 8.3 1.8
v -0.3 1.5 1.8
v -0.3 1.6 1.8
v -0.3 1.7 1.8
v -0.3 1.8 1.8
v -0.3 1.9 1.8
v -0.3 2 1.8
v -0.3 7.5 1.8
v -0.3 7.7 1.8
v -0.3 8 1.8
v -0.3 8.1 1.8
v -0.2 1.6 1.8
v -0.2 1.7 1.8
v -0.2 1.8 1.8
v -0.2 1.9 1.8
v -0.2 2 1.8
v -0.2 2.1 1.8
v -0.2 7.4 1.8
v -0.2 7.5 1.8
v -0.2 7.8 1.8
v -0.2 8 1.8
v -0.1 1.4 1.8
v -0.1 1.5 1.8
v -0.1 5.2 1.8
v -0.1 6.3 1.8
v -0.1 7.6 1.8
v -0.1 7.8 1.8
v -1.19209e-07 1.3 1.8
v -1.19209e-07 1.4 1.8
v -1.19209e-07 1.5 1.8
v -1.19209e-07 1.6 1.8
v -1.19209e-07 1.9 1.8
v -1.19209e-07 2 1.8
v -1.19209e-07 2.1 1.8
v -1.19209e-07 2.2 1.8
v 0.0999999 1.2 1.8
v 0.0999999 1.3 1.8
v 0.0999999 1.4 1.8
v 0.0999999 1.5 1.8
v 0.0999999 2 1.8
v 0.0999999 2.1 1.8
v 0.0999999 2.2 1.8
v 0.0999999 2.3 1.8
v 0.0999999 5.2 1.8
v 0.0999999 6.3 1.8
v 0.0999999 7.6 1.8
v 0.0999999 7.8 1.8
v 0.2 1.3 1.8
v 0.2 1.4 1.8
v 0.2 2.1 1.8
v 0.2 2.2 1.8
v 0.2 2.3 1.8
v 0.2 2.4 1.8
v 0.2 7.4 1.8
v 0.2 7.5 1.8
v 0.2 7.8 1.8
v 0.2 7.9 1.8
v 0.3 1.1 1.8
v 0.3 1.2 1.8
v 0.3 7.5 1.8
v 0.3 7.7 1.8
v 0.3 7.9 1.8
v 0.3 8.1 1.8
v 0.4 1 1.8
v 0.4 1.1 1.8
v 0.4 1.2 1.8
v 0.4 1.3 1.8
v 0.4 2.2 1.8
v 0.4 2.3 1.8
v 0.4 2.4 1.8
v 0.4 2.5 1.8
v 0.4 5 1.8
v 0.4 5.2 1.8
v 0.4 6.3 1.8
v 0.4 6.5 1.8
v 0.4 7.7 1.8
v 0.4 7.8 1.8
v 0.4 8.1 1.8
v 0.4 8.3 1.8
v 0.5 1.1 1.8
v 0.5 1.2 1.8
v 0.5 2.3 1.8
v 0.5 2.4 1.8
v 0.5 7.8 1.8
v 0.5 8 1.8
v 0.5 8.3 1.8
v 0.5 8.4 1.8
v 0.6 1 1.8
v 0.6 1.1 1.8
v 0.6 2.4 1.8
v 0.6 2.5 1.8
v 0.6 3 1.8
v 0.6 3.2 1.8
v 0.6 7 1.8
v 0.6 8 1.8
v 0.8 7 1.8
v 0.8 8.4 1.8
v 1.2 0.9 1.8
v 1.2 9 1.8
v 1.8 0 1.8
v 1.8 9.6 1.8
v -1.8 9.6 1.5
v -1.8 10.2 1.5
v 1.8 9.6 1.5
v 1.8 10.2 1.5
v -1.8 10.2 1.2
v -1.8 10.5 1.2
v 1.8 10.2 1.2
v 1.8 10.5 1.2
v -1.8 10.5 0.9
v -1.8 10.8 0.9
v 1.8 10.5 0.9
v 1.8 10.8 0.9
v -1.8 10.8 0.6
v -1.8 11.1 0.6
v 1.8 10.8 0.6
v 1.8 11.1 0.6
v -1.8 10.5 -0.3
v -1.8 10.8 -0.3
v -0.9 10.5 -0.3
v -0.9 10.8 -0.3
v 0.9 10.5 -0.3
v 0.9 10.8 -0.3
v 1.8 10.5 -0.3
v 1.8 10.8 -0.3
v -1.8 10.2 -0.6
v -1.8 10.5 -0.6
v -1.2 10.2 -0.6
v -0.9 10.2 -0.6
v -0.9 10.5 -0.6
v 0.9 10.2 -0.6
v 0.9 10.5 -0.6
v 1.2 10.2 -0.6
v 1.8 10.2 -0.6
v 1.8 10.5 -0.6
v -1.8 9.9 -0.9
v -1.8 10.2 -0.9
v -1.5 9.9 -0.9
v -1.2 9.9 -0.9
v -1.2 10.2 -0.9
v 1.2 9.9 -0.9
v 1.2 10.2 -0.9
v 1.5 9.9 -0.9
v 1.8 9.9 -0.9
v 1.8 10.2 -0.9
v -1.8 9.6 -1.2
v -1.8 9.9 -1.2
v -1.5 9.6 -1.2
v -1.5 9.9 -1.2
v 1.5 9.6 -1.2
v 1.5 9.9 -1.2
v 1.8 9.6 -1.2
v 1.8 9.9 -1.2
v -1.8 9.6 1.2
v -1.8 9.9 1.2
v -1.5 9.6 1.2
v -1.5 9.9 1.2
v 1.5 9.6 1.2
v 1.5 9.9 1.2
v 1.8 9.6 1.2
v 1.8 9.9 1.2
v -1.8 9.9 0.9
v -1.8 10.2 0.9
v -1.5 9.9 0.9
v -1.2 9.9 0.9
v -1.2 10.2 0.9
v 1.2 9.9 0.9
v 1.2 10.2 0.9
v 1.5 9.9 0.9
v 1.8 9.9 0.9
v 1.8 10.2 0.9
v -1.8 10.2 0.6
v -1.8 10.5 0.6
v -1.2 10.2 0.6
v -0.9 10.2 0.6
v -0.9 10.5 0.6
v 0.9 10.2 0.6
v 0.9 10.5 0.6
v 1.2 10.2 0.6
v 1.8 10.2 0.6
v 1.8 10.5 0.6
v -1.8 10.5 0.3
v -1.8 10.8 0.3
v -0.9 10.5 0.3
v -0.9 10.8 0.3
v 0.9 10.5 0.3
v 0.9 10.8 0.3
v 1.8 10.5 0.3
v 1.8 10.8 0.3
v -1.8 10.8 -0.6
v -1.8 11.1 -0.6
v 1.8 10.8 -0.6
v 1.8 11.1 -0.6
v -1.8 10.5 -0.9
v -1.8 10.8 -0.9
v 1.8 10.5 -0.9
v 1.8 10.8 -0.9
v -1.8 10.2 -1.2
v -1.8 10.5 -1.2
v 1.8 10.2 -1.2
v 1.8 10.5 -1.2
v -1.8 9.6 -1.5
v -1.8 10.2 -1.5
v 1.8 9.6 -1.5
v 1.8 10.2 -1.5
v -1.8 0 -1.8
v -1.8 9.6 -1.8
v 1.8 0 -1.8
v 1.8 9.6 -1.8
v -1.8 0 1.8
v 1.8 0 1.8
v -1.8 0 -1.8
v 1.8 0 -1.8
v -1.8 9.9 1.2
v -1.5 9.9 1.2
v 1.5 9.9 1.2
v 1.8 9.9 1.2
v -1.8 9.9 0.9
v -1.5 9.9 0.9
v 1.5 9.9 0.9
v 1.8 9.9 0.9
v -1.8 9.9 -0.9
v -1.5 9.9 -0.9
v 1.5 9.9 -0.9
v 1.8 9.9 -0.9
v -1.8 9.9 -1.2
v -1.5 9.9 -1.2
v 1.5 9.9 -1.2
v 1.8 9.9 -1.2
v -1.8 10.2 0.9
v -1.2 10.2 0.9
v 1.2 10.2 0.9
v 1.8 10.2 0.9
v -1.8 10.2 0.6
v -1.2 10.2 0.6
v 1.2 10.2 0.6
v 1.8 10.2 0.6
v -1.8 10.2 -0.6
v -1.2 10.2 -0.6
v 1.2 10.2 -0.6
v 1.8 10.2 -0.6
v -1.8 10.2 -0.9
v -1.2 10.2 -0.9
v 1.2 10.2 -0.9
v 1.8 10.2 -0.9
v -1.8 10.5 0.6
v -0.9 10.5 0.6
v 0.9 10.5 0.6
v 1.8 10.5 0.6
v -1.8 10.5 0.3
v -0.9 10.5 0.3
v 0.9 10.5 0.3
v 1.8 10.5 0.3
v -1.8 10.5 -0.3
v -0.9 10.5 -0.3
v 0.9 10.5 -0.3
v 1.8 10.5 -0.3
v -1.8 10.5 -0.6
v -0.9 10.5 -0.6
v 0.9 10.5 -0.6
v 1.8 10.5 -0.6
v -1.8 10.8 0.3
v -0.9 10.8 0.3
v 0.9 10.8 0.3
v 1.8 10.8 0.3
v -1.8 10.8 -0.3
v -0.9 10.8 -0.3
v 0.9 10.8 -0.3
v 1.8 10.8 -0.3
v -1.8 9.6 1.8
v 1.8 9.6 1.8
v -1.8 9.6 1.5
v 1.8 9.6 1.5
v -1.8 9.6 1.2
v -1.5 9.6 1.2
v 1.5 9.6 1.2
v 1.8 9.6 1.2
v -1.8 9.6 -1.2
v -1.5 9.6 -1.2
v 1.5 9.6 -1.2
v 1.8 9.6 -1.2
v -1.8 9.6 -1.5
v 1.8 9.6 -1.5
v -1.8 9.6 -1.8
v 1.8 9.6 -1.8
v -1.5 9.9 0.9
v -1.2 9.9 0.9
v 1.2 9.9 0.9
v 1.5 9.9 0.9
v -1.5 9.9 -0.9
v -1.2 9.9 -0.9
v 1.2 9.9 -0.9
v 1.5 9.9 -0.9
v -1.8 10.2 1.5
v 1.8 10.2 1.5
v -1.8 10.2 1.2
v 1.8 10.2 1.2
v -1.2 10.2 0.6
v -0.9 10.2 0.6
v 0.9 10.2 0.6
v 1.2 10.2 0.6
v -1.2 10.2 -0.6
v -0.9 10.2 -0.6
v 0.9 10.2 -0.6
v 1.2 10.2 -0.6
v -1.8 10.2 -1.2
v 1.8 10.2 -1.2
v -1.8 10.2 -1.5
v 1.8 10.2 -1.5
v -1.8 10.5 1.2
v 1.8 10.5 1.2
v -1.8 10.5 0.9
v 1.8 10.5 0.9
v -1.8 10.5 -0.9
v 1.8 10.5 -0.9
v -1.8 10.5 -1.2
v 1.8 10.5 -1.2
v -1.8 10.8 0.9
v 1.8 10.8 0.9
v -1.8 10.8 0.6
v 1.8 10.8 0.6
v -1.8 10.8 -0.6
v 1.8 10.8 -0.6
v -1.8 10.8 -0.9
v 1.8 10.8 -0.9
v -1.8 11.1 0.6
v 1.8 11.1 0.6
v -1.8 11.1 -0.6
v 1.8 11.1 -0.6

# faces
f 3/1/1 2/1/1 1/1/1
f 4/1/1 2/1/1 3/1/1
f 5/1/1 2/1/1 4/1/1
f 6/1/1 2/1/1 5/1/1
f 7/1/1 2/1/1 6/1/1
f 8/1/1 2/1/1 7/1/1
f 9/1/1 2/1/1 8/1/1
f 10/1/1 2/1/1 9/1/1
f 11/1/1 2/1/1 10/1/1
f 12/1/1 2/1/1 11/1/1
f 13/1/1 2/1/1 12/1/1
f 14/1/1 2/1/1 13/1/1
f 15/1/1 2/1/1 14/1/1
f 16/1/1 2/1/1 15/1/1
f 17/1/1 2/1/1 16/1/1
f 18/1/1 2/1/1 17/1/1
f 19/1/1 2/1/1 18/1/1
f 20/1/1 2/1/1 19/1/1
f 21/1/1 2/1/1 20/1/1
f 22/1/1 2/1/1 21/1/1
f 23/1/1 2/1/1 22/1/1
f 24/1/1 2/1/1 23/1/1
f 25/1/1 3/1/1 1/1/1
f 25/3/1 4/3/1 3/3/1
f 26/2/1 5/2/1 4/2/1
f 26/3/1 4/3/1 25/3/1
f 27/3/1 6/3/1 5/3/1
f 27/2/1 5/2/1 26/2/1
f 28/2/1 7/2/1 6/2/1
f 28/3/1 6/3/1 27/3/1
f 29/3/1 8/3/1 7/3/1
f 29/2/1 7/2/1 28/2/1
f 30/2/1 9/2/1 8/2/1
f 30/3/1 8/3/1 29/3/1
f 31/3/1 10/3/1 9/3/1
f 31/2/1 9/2/1 30/2/1
f 32/2/1 11/2/1 10/2/1
f 32/3/1 10/3/1 31/3/1
f 33/3/1 12/3/1 11/3/1
f 33/2/1 11/2/1 32/2/1
f 34/2/1 13/2/1 12/2/1
f 34/3/1 12/3/1 33/3/1
f 35/3/1 14/3/1 13/3/1
f 35/2/1 13/2/1 34/2/1
f 36/2/1 15/2/1 14/2/1
f 36/3/1 14/3/1 35/3/1
f 37/3/1 16/3/1 15/3/1
f 37/2/1 15/2/1 36/2/1
f 38/2/1 17/2/1 16/2/1
f 38/3/1 16/3/1 37/3/1
f 39/3/1 18/3/1 17/3/1
f 39/2/1 17/2/1 38/2/1
f 40/2/1 19/2/1 18/2/1
f 40/3/1 18/3/1 39/3/1
f 41/3/1 20/3/1 19/3/1
f 41/2/1 19/2/1 40/2/1
f 42/2/1 21/2/1 20/2/1
f 42/3/1 20/3/1 41/3/1
f 43/3/1 22/3/1 21/3/1
f 43/2/1 21/2/1 42/2/1
f 44/2/1 23/2/1 22/2/1
f 44/3/1 22/3/1 43/3/1
f 45/3/1 24/3/1 23/3/1
f 45/2/1 23/2/1 44/2/1
f 46/1/1 2/1/1 24/1/1
f 46/3/1 24/3/1 45/3/1
f 47/1/1 45/1/1 44/1/1
f 47/1/1 44/1/1 43/1/1
f 47/1/1 46/1/1 45/1/1
f 47/1/1 43/1/1 42/1/1
f 47/1/1 42/1/1 41/1/1
f 47/1/1 41/1/1 40/1/1
f 47/1/1 40/1/1 39/1/1
f 47/1/1 39/1/1 38/1/1
f 47/1/1 38/1/1 37/1/1
f 47/1/1 37/1/1 36/1/1
f 47/1/1 36/1/1 35/1/1
f 47/1/1 35/1/1 34/1/1
f 47/1/1 34/1/1 33/1/1
f 47/1/1 33/1/1 32/1/1
f 47/1/1 32/1/1 31/1/1
f 47/1/1 31/1/1 30/1/1
f 47/1/1 30/1/1 29/1/1
f 47/1/1 29/1/1 28/1/1
f 47/1/1 28/1/1 27/1/1
f 47/1/1 27/1/1 26/1/1
f 47/1/1 26/1/1 25/1/1
f 47/1/1 25/1/1 1/1/1
f 48/1/1 2/1/1 46/1/1
f 48/1/1 46/1/1 47/1/1
f 49/1/1 47/1/1 1/1/1
f 49/2/1 48/2/1 47/2/1
f 50/1/1 2/1/1 48/1/1
f 50/2/1 48/2/1 49/2/1
f 51/1/1 49/1/1 1/1/1
f 51/1/1 50/1/1 49/1/1
f 52/1/1 50/1/1 51/1/1
f 53/1/1 50/1/1 52/1/1
f 54/1/1 2/1/1 50/1/1
f 54/1/1 50/1/1 53/1/1
f 55/1/1 2/1/1 54/1/1
f 56/1/1 2/1/1 55/1/1
f 57/1/1 53/1/1 52/1/1
f 60/1/1 55/1/1 54/1/1
f 61/1/1 58/1/1 57/1/1
f 61/1/1 57/1/1 52/1/1
f 62/1/1 58/1/1 61/1/1
f 63/1/1 58/1/1 62/1/1
f 66/1/1 60/1/1 59/1/1
f 67/1/1 55/1/1 60/1/1
f 67/1/1 60/1/1 66/1/1
f 68/1/1 55/1/1 67/1/1
f 69/1/1 64/1/1 63/1/1
f 69/1/1 63/1/1 62/1/1
f 70/1/1 64/1/1 69/1/1
f 71/1/1 64/1/1 70/1/1
f 74/1/1 66/1/1 65/1/1
f 74/1/1 67/1/1 66/1/1
f 75/1/1 67/1/1 74/1/1
f 76/1/1 67/1/1 75/1/1
f 77/1/1 72/1/1 71/1/1
f 77/1/1 71/1/1 70/1/1
f 78/1/1 72/1/1 77/1/1
f 79/1/1 72/1/1 78/1/1
f 80/1/1 75/1/1 74/1/1
f 80/1/1 74/1/1 73/1/1
f 81/1/1 75/1/1 80/1/1
f 82/1/1 75/1/1 81/1/1
f 83/1/1 79/1/1 78/1/1
f 83/1/1 81/1/1 80/1/1
f 83/1/1 80/1/1 79/1/1
f 84/1/1 81/1/1 83/1/1
f 87/1/1 86/1/1 85/1/1
f 88/1/1 86/1/1 87/1/1
f 89/1/1 86/1/1 88/1/1
f 90/1/1 86/1/1 89/1/1
f 93/1/1 92/1/1 91/1/1
f 94/1/1 92/1/1 93/1/1
f 95/1/1 92/1/1 94/1/1
f 96/1/1 92/1/1 95/1/1
f 99/1/1 98/1/1 97/1/1
f 100/1/1 98/1/1 99/1/1
f 101/1/1 98/1/1 100/1/1
f 102/1/1 98/1/1 101/1/1
f 103/1/1 101/1/1 100/1/1
f 104/1/1 101/1/1 103/1/1
f 105/1/2 106/1/2 107/1/2
f 107/1/2 106/1/2 108/1/2
f 108/1/2 106/1/2 109/1/2
f 109/1/2 106/1/2 110/1/2
f 108/1/2 109/1/2 111/1/2
f 111/1/2 109/1/2 112/1/2
f 113/1/2 114/1/2 115/1/2
f 115/1/2 114/1/2 116/1/2
f 116/1/2 114/1/2 117/1/2
f 117/1/2 114/1/2 118/1/2
f 119/1/2 120/1/2 121/1/2
f 121/1/2 120/1/2 122/1/2
f 122/1/2 120/1/2 123/1/2
f 123/1/2 120/1/2 124/1/2
f 125/1/2 126/1/2 127/1/2
f 127/1/2 126/1/2 128/1/2
f 128/1/2 126/1/2 129/1/2
f 129/1/2 126/1/2 130/1/2
f 125/1/2 127/1/2 131/1/2
f 127/2/2 128/2/2 131/2/2
f 128/1/2 129/1/2 132/1/2
f 131/2/2 128/2/2 132/2/2
f 129/2/2 130/2/2 133/2/2
f 132/1/2 129/1/2 133/1/2
f 131/1/2 132/1/2 133/1/2
f 130/1/2 126/1/2 134/1/2
f 133/2/2 130/2/2 134/2/2
f 131/1/2 133/1/2 135/1/2
f 125/1/2 131/1/2 135/1/2
f 133/1/2 134/1/2 135/1/2
f 135/1/2 134/1/2 136/1/2
f 136/1/2 134/1/2 137/1/2
f 134/1/2 126/1/2 138/1/2
f 137/1/2 134/1/2 138/1/2
f 138/1/2 126/1/2 139/1/2
f 139/1/2 126/1/2 140/1/2
f 136/1/2 137/1/2 141/1/2
f 138/1/2 139/1/2 144/1/2
f 141/1/2 142/1/2 145/1/2
f 136/1/2 141/1/2 145/1/2
f 145/1/2 142/1/2 146/1/2
f 146/1/2 142/1/2 147/1/2
f 143/1/2 144/1/2 150/1/2
f 144/1/2 139/1/2 151/1/2
f 150/1/2 144/1/2 151/1/2
f 151/1/2 139/1/2 152/1/2
f 147/1/2 148/1/2 153/1/2
f 146/1/2 147/1/2 153/1/2
f 153/1/2 148/1/2 154/1/2
f 154/1/2 148/1/2 155/1/2
f 149/1/2 150/1/2 158/1/2
f 150/1/2 151/1/2 158/1/2
f 158/1/2 151/1/2 159/1/2
f 159/1/2 151/1/2 160/1/2
f 155/1/2 156/1/2 161/1/2
f 154/1/2 155/1/2 161/1/2
f 161/1/2 156/1/2 162/1/2
f 162/1/2 156/1/2 163/1/2
f 158/1/2 159/1/2 164/1/2
f 157/1/2 158/1/2 164/1/2
f 164/1/2 159/1/2 165/1/2
f 165/1/2 159/1/2 166/1/2
f 162/1/2 163/1/2 167/1/2
f 164/1/2 165/1/2 167/1/2
f 163/1/2 164/1/2 167/1/2
f 167/1/2 165/1/2 168/1/2
f 171/1/3 170/1/3 169/1/3
f 172/1/3 170/1/3 171/1/3
f 173/2/3 172/2/3 171/2/3
f 174/2/3 172/2/3 173/2/3
f 175/2/3 173/2/3 171/2/3
f 176/2/3 173/2/3 175/2/3
f 177/2/3 173/2/3 176/2/3
f 178/2/3 173/2/3 177/2/3
f 179/3/3 174/3/3 173/3/3
f 179/2/3 173/2/3 178/2/3
f 180/3/3 174/3/3 179/3/3
f 181/2/3 179/2/3 178/2/3
f 181/2/3 180/2/3 179/2/3
f 182/3/3 174/3/3 180/3/3
f 182/2/3 180/2/3 181/2/3
f 183/3/3 174/3/3 182/3/3
f 184/2/3 172/2/3 174/2/3
f 184/3/3 174/3/3 183/3/3
f 185/2/3 175/2/3 171/2/3
f 185/3/3 176/3/3 175/3/3
f 186/3/3 176/3/3 185/3/3
f 187/3/3 176/3/3 186/3/3
f 188/2/3 177/2/3 176/2/3
f 188/3/3 176/3/3 187/3/3
f 189/3/3 178/3/3 177/3/3
f 190/2/3 181/2/3 178/2/3
f 190/3/3 178/3/3 189/3/3
f 191/2/3 181/2/3 190/2/3
f 192/2/3 181/2/3 191/2/3
f 193/2/3 181/2/3 192/2/3
f 194/2/3 181/2/3 193/2/3
f 195/2/3 181/2/3 194/2/3
f 196/3/3 183/3/3 182/3/3
f 196/2/3 181/2/3 195/2/3
f 196/3/3 182/3/3 181/3/3
f 197/3/3 183/3/3 196/3/3
f 198/2/3 184/2/3 183/2/3
f 198/3/3 183/3/3 197/3/3
f 199/2/3 186/2/3 185/2/3
f 200/3/3 187/3/3 186/3/3
f 200/2/3 186/2/3 199/2/3
f 201/3/3 187/3/3 200/3/3
f 202/3/3 187/3/3 201/3/3
f 203/2/3 188/2/3 187/2/3
f 203/3/3 187/3/3 202/3/3
f 204/2/3 188/2/3 203/2/3
f 205/2/3 195/2/3 194/2/3
f 206/3/3 197/3/3 196/3/3
f 206/2/3 195/2/3 205/2/3
f 206/3/3 196/3/3 195/3/3
f 207/3/3 197/3/3 206/3/3
f 208/2/3 198/2/3 197/2/3
f 208/3/3 197/3/3 207/3/3
f 209/3/3 200/3/3 199/3/3
f 209/3/3 201/3/3 200/3/3
f 210/2/3 202/2/3 201/2/3
f 210/3/3 201/3/3 209/3/3
f 211/3/3 204/3/3 203/3/3
f 211/2/3 202/2/3 210/2/3
f 211/3/3 203/3/3 202/3/3
f 212/3/3 204/3/3 211/3/3
f 213/2/3 188/2/3 204/2/3
f 213/3/3 204/3/3 212/3/3
f 214/2/3 188/2/3 213/2/3
f 215/2/3 205/2/3 194/2/3
f 216/3/3 207/3/3 206/3/3
f 216/2/3 205/2/3 215/2/3
f 216/3/3 206/3/3 205/3/3
f 217/3/3 207/3/3 216/3/3
f 218/2/3 208/2/3 207/2/3
f 218/3/3 207/3/3 217/3/3
f 219/2/3 199/2/3 185/2/3
f 220/3/3 209/3/3 199/3/3
f 220/2/3 199/2/3 219/2/3
f 221/3/3 192/3/3 191/3/3
f 221/2/3 193/2/3 192/2/3
f 222/3/3 194/3/3 193/3/3
f 222/2/3 193/2/3 221/2/3
f 223/3/3 217/3/3 216/3/3
f 223/3/3 216/3/3 215/3/3
f 224/2/3 218/2/3 217/2/3
f 224/3/3 217/3/3 223/3/3
f 225/2/3 219/2/3 185/2/3
f 226/3/3 220/3/3 219/3/3
f 226/2/3 219/2/3 225/2/3
f 227/3/3 209/3/3 220/3/3
f 227/3/3 220/3/3 226/3/3
f 228/2/3 212/2/3 211/2/3
f 228/3/3 209/3/3 227/3/3
f 228/2/3 210/2/3 209/2/3
f 228/2/3 211/2/3 210/2/3
f 229/3/3 214/3/3 213/3/3
f 229/2/3 212/2/3 228/2/3
f 229/3/3 213/3/3 212/3/3
f 230/3/3 214/3/3 229/3/3
f 231/2/3 188/2/3 214/2/3
f 231/3/3 214/3/3 230/3/3
f 232/2/3 188/2/3 231/2/3
f 233/2/3 225/2/3 185/2/3
f 234/3/3 227/3/3 226/3/3
f 234/2/3 225/2/3 233/2/3
f 234/3/3 226/3/3 225/3/3
f 235/3/3 227/3/3 234/3/3
f 236/2/3 230/2/3 229/2/3
f 236/3/3 227/3/3 235/3/3
f 236/2/3 228/2/3 227/2/3
f 236/2/3 229/2/3 228/2/3
f 237/3/3 232/3/3 231/3/3
f 237/2/3 230/2/3 236/2/3
f 237/3/3 231/3/3 230/3/3
f 238/3/3 232/3/3 237/3/3
f 239/2/3 188/2/3 232/2/3
f 239/3/3 232/3/3 238/3/3
f 240/2/3 188/2/3 239/2/3
f 241/3/3 221/3/3 191/3/3
f 241/3/3 222/3/3 221/3/3
f 242/3/3 194/3/3 222/3/3
f 242/3/3 222/3/3 241/3/3
f 243/2/3 224/2/3 223/2/3
f 243/3/3 223/3/3 215/3/3
f 244/2/3 218/2/3 224/2/3
f 244/2/3 224/2/3 243/2/3
f 245/3/3 235/3/3 234/3/3
f 245/3/3 234/3/3 233/3/3
f 246/2/3 236/2/3 235/2/3
f 246/3/3 235/3/3 245/3/3
f 246/2/3 238/2/3 237/2/3
f 246/2/3 237/2/3 236/2/3
f 247/3/3 239/3/3 238/3/3
f 247/2/3 238/2/3 246/2/3
f 247/3/3 240/3/3 239/3/3
f 248/3/3 240/3/3 247/3/3
f 249/2/3 188/2/3 240/2/3
f 249/3/3 240/3/3 248/3/3
f 250/2/3 188/2/3 249/2/3
f 251/3/3 243/3/3 215/3/3
f 251/2/3 215/2/3 194/2/3
f 251/3/3 244/3/3 243/3/3
f 252/3/3 244/3/3 251/3/3
f 253/2/3 218/2/3 244/2/3
f 253/3/3 244/3/3 252/3/3
f 254/2/3 218/2/3 253/2/3
f 255/2/3 233/2/3 185/2/3
f 256/3/3 245/3/3 233/3/3
f 256/2/3 233/2/3 255/2/3
f 257/2/3 252/2/3 251/2/3
f 257/3/3 253/3/3 252/3/3
f 257/3/3 254/3/3 253/3/3
f 258/3/3 254/3/3 257/3/3
f 259/2/3 218/2/3 254/2/3
f 259/3/3 254/3/3 258/3/3
f 260/2/3 208/2/3 218/2/3
f 260/2/3 218/2/3 259/2/3
f 260/2/3 198/2/3 208/2/3
f 261/2/3 185/2/3 171/2/3
f 261/2/3 255/2/3 185/2/3
f 262/3/3 256/3/3 255/3/3
f 262/2/3 255/2/3 261/2/3
f 263/3/3 245/3/3 256/3/3
f 263/3/3 256/3/3 262/3/3
f 264/2/3 248/2/3 247/2/3
f 264/3/3 245/3/3 263/3/3
f 264/2/3 246/2/3 245/2/3
f 264/2/3 247/2/3 246/2/3
f 265/3/3 250/3/3 249/3/3
f 265/2/3 248/2/3 264/2/3
f 265/3/3 249/3/3 248/3/3
f 266/3/3 250/3/3 265/3/3
f 267/2/3 188/2/3 250/2/3
f 267/3/3 250/3/3 266/3/3
f 268/2/3 177/2/3 188/2/3
f 268/2/3 188/2/3 267/2/3
f 269/2/3 190/2/3 189/2/3
f 269/2/3 191/2/3 190/2/3
f 269/3/3 241/3/3 191/3/3
f 270/2/3 242/2/3 241/2/3
f 270/3/3 241/3/3 269/3/3
f 271/3/3 194/3/3 242/3/3
f 271/2/3 242/2/3 270/2/3
f 272/2/3 258/2/3 257/2/3
f 272/3/3 194/3/3 271/3/3
f 272/2/3 257/2/3 251/2/3
f 272/2/3 251/2/3 194/2/3
f 273/3/3 259/3/3 258/3/3
f 273/2/3 258/2/3 272/2/3
f 273/3/3 260/3/3 259/3/3
f 274/3/3 260/3/3 273/3/3
f 275/2/3 198/2/3 260/2/3
f 275/3/3 260/3/3 274/3/3
f 276/2/3 184/2/3 198/2/3
f 276/2/3 198/2/3 275/2/3
f 277/3/3 262/3/3 261/3/3
f 277/3/3 263/3/3 262/3/3
f 278/2/3 266/2/3 265/2/3
f 278/3/3 263/3/3 277/3/3
f 278/2/3 265/2/3 264/2/3
f 278/2/3 264/2/3 263/2/3
f 279/3/3 267/3/3 266/3/3
f 279/2/3 266/2/3 278/2/3
f 279/3/3 268/3/3 267/3/3
f 280/3/3 268/3/3 279/3/3
f 281/2/3 271/2/3 270/2/3
f 281/2/3 272/2/3 271/2/3
f 281/3/3 276/3/3 275/3/3
f 281/2/3 274/2/3 273/2/3
f 281/2/3 270/2/3 269/2/3
f 281/3/3 275/3/3 274/3/3
f 281/2/3 273/2/3 272/2/3
f 282/3/3 276/3/3 281/3/3
f 283/2/3 184/2/3 276/2/3
f 283/3/3 276/3/3 282/3/3
f 284/2/3 172/2/3 184/2/3
f 284/2/3 184/2/3 283/2/3
f 285/2/3 261/2/3 171/2/3
f 285/3/3 277/3/3 261/3/3
f 286/2/3 278/2/3 277/2/3
f 286/3/3 277/3/3 285/3/3
f 286/2/3 280/2/3 279/2/3
f 286/2/3 279/2/3 278/2/3
f 287/3/3 268/3/3 280/3/3
f 287/2/3 280/2/3 286/2/3
f 288/2/3 177/2/3 268/2/3
f 288/3/3 268/3/3 287/3/3
f 289/3/3 189/3/3 177/3/3
f 289/2/3 177/2/3 288/2/3
f 290/2/3 282/2/3 281/2/3
f 290/3/3 189/3/3 289/3/3
f 290/2/3 281/2/3 269/2/3
f 290/2/3 269/2/3 189/2/3
f 291/2/3 282/2/3 290/2/3
f 292/3/3 283/3/3 282/3/3
f 292/2/3 282/2/3 291/2/3
f 292/3/3 284/3/3 283/3/3
f 293/2/3 286/2/3 285/2/3
f 293/2/3 291/2/3 290/2/3
f 293/3/3 292/3/3 291/3/3
f 293/2/3 289/2/3 288/2/3
f 293/2/3 287/2/3 286/2/3
f 293/2/3 288/2/3 287/2/3
f 293/2/3 290/2/3 289/2/3
f 294/3/3 284/3/3 292/3/3
f 294/3/3 292/3/3 293/3/3
f 294/2/3 172/2/3 284/2/3
f 295/1/3 171/1/3 169/1/3
f 295/2/3 293/2/3 285/2/3
f 295/2/3 294/2/3 293/2/3
f 295/2/3 285/2/3 171/2/3
f 296/2/3 172/2/3 294/2/3
f 296/2/3 294/2/3 295/2/3
f 296/1/3 170/1/3 172/1/3
f 297/1/3 295/1/3 169/1/3
f 297/1/3 296/1/3 295/1/3
f 298/1/3 170/1/3 296/1/3
f 298/1/3 296/1/3 297/1/3
f 301/1/3 300/1/3 299/1/3
f 302/1/3 300/1/3 301/1/3
f 305/1/3 304/1/3 303/1/3
f 306/1/3 304/1/3 305/1/3
f 309/1/3 308/1/3 307/1/3
f 310/1/3 308/1/3 309/1/3
f 313/1/3 312/1/3 311/1/3
f 314/1/3 312/1/3 313/1/3
f 317/1/3 316/1/3 315/1/3
f 318/1/3 316/1/3 317/1/3
f 321/1/3 320/1/3 319/1/3
f 322/1/3 320/1/3 321/1/3
f 325/1/3 324/1/3 323/1/3
f 326/1/3 324/1/3 325/1/3
f 327/1/3 324/1/3 326/1/3
f 330/1/3 329/1/3 328/1/3
f 331/1/3 329/1/3 330/1/3
f 332/1/3 329/1/3 331/1/3
f 335/1/3 334/1/3 333/1/3
f 336/1/3 334/1/3 335/1/3
f 337/1/3 334/1/3 336/1/3
f 340/1/3 339/1/3 338/1/3
f 341/1/3 339/1/3 340/1/3
f 342/1/3 339/1/3 341/1/3
f 345/1/3 344/1/3 343/1/3
f 346/1/3 344/1/3 345/1/3
f 349/1/3 348/1/3 347/1/3
f 350/1/3 348/1/3 349/1/3
f 351/1/4 352/1/4 353/1/4
f 353/1/4 352/1/4 354/1/4
f 355/1/4 356/1/4 357/1/4
f 357/1/4 356/1/4 358/1/4
f 359/1/4 360/1/4 361/1/4
f 361/1/4 360/1/4 362/1/4
f 362/1/4 360/1/4 363/1/4
f 364/1/4 365/1/4 366/1/4
f 366/1/4 365/1/4 367/1/4
f 367/1/4 365/1/4 368/1/4
f 369/1/4 370/1/4 371/1/4
f 371/1/4 370/1/4 372/1/4
f 372/1/4 370/1/4 373/1/4
f 374/1/4 375/1/4 376/1/4
f 376/1/4 375/1/4 377/1/4
f 377/1/4 375/1/4 378/1/4
f 379/1/4 380/1/4 381/1/4
f 381/1/4 380/1/4 382/1/4
f 383/1/4 384/1/4 385/1/4
f 385/1/4 384/1/4 386/1/4
f 387/1/4 388/1/4 389/1/4
f 389/1/4 388/1/4 390/1/4
f 391/1/4 392/1/4 393/1/4
f 393/1/4 392/1/4 394/1/4
f 395/1/4 396/1/4 397/1/4
f 397/1/4 396/1/4 398/1/4
f 399/1/4 400/1/4 401/1/4
f 401/1/4 400/1/4 402/1/4
f 403/1/4 404/1/4 405/1/4
f 405/1/4 404/1/4 406/1/4
f 409/1/5 408/1/5 407/1/5
f 410/1/5 408/1/5 409/1/5
f 415/1/5 412/1/5 411/1/5
f 416/1/5 412/1/5 415/1/5
f 417/1/5 414/1/5 413/1/5
f 418/1/5 414/1/5 417/1/5
f 423/1/5 420/1/5 419/1/5
f 424/1/5 420/1/5 423/1/5
f 425/1/5 422/1/5 421/1/5
f 426/1/5 422/1/5 425/1/5
f 431/1/5 428/1/5 427/1/5
f 432/1/5 428/1/5 431/1/5
f 433/1/5 430/1/5 429/1/5
f 434/1/5 430/1/5 433/1/5
f 439/1/5 436/1/5 435/1/5
f 440/1/5 436/1/5 439/1/5
f 441/1/5 438/1/5 437/1/5
f 442/1/5 438/1/5 441/1/5
f 447/1/5 444/1/5 443/1/5
f 448/1/5 444/1/5 447/1/5
f 449/1/5 446/1/5 445/1/5
f 450/1/5 446/1/5 449/1/5
f 455/1/5 452/1/5 451/1/5
f 456/1/5 452/1/5 455/1/5
f 457/1/5 454/1/5 453/1/5
f 458/1/5 454/1/5 457/1/5
f 463/1/5 460/1/5 459/1/5
f 464/1/5 460/1/5 463/1/5
f 465/1/5 462/1/5 461/1/5
f 466/1/5 462/1/5 465/1/5
f 467/1/6 468/1/6 469/1/6
f 469/1/6 468/1/6 470/1/6
f 471/1/6 472/1/6 475/1/6
f 475/1/6 472/1/6 476/1/6
f 473/1/6 474/1/6 477/1/6
f 477/1/6 474/1/6 478/1/6
f 479/1/6 480/1/6 481/1/6
f 481/1/6 480/1/6 482/1/6
f 483/1/6 484/1/6 487/1/6
f 487/1/6 484/1/6 488/1/6
f 485/1/6 486/1/6 489/1/6
f 489/1/6 486/1/6 490/1/6
f 491/1/6 492/1/6 493/1/6
f 493/1/6 492/1/6 494/1/6
f 495/1/6 496/1/6 499/1/6
f 499/1/6 496/1/6 500/1/6
f 497/1/6 498/1/6 501/1/6
f 501/1/6 498/1/6 502/1/6
f 503/1/6 504/1/6 505/1/6
f 505/1/6 504/1/6 506/1/6
f 507/1/6 508/1/6 509/1/6
f 509/1/6 508/1/6 510/1/6
f 511/1/6 512/1/6 513/1/6
f 513/1/6 512/1/6 514/1/6
f 515/1/6 516/1/6 517/1/6
f 517/1/6 516/1/6 518/1/6
f 519/1/6 520/1/6 521/1/6
f 521/1/6 520/1/6 522/1/6
f 523/1/6 524/1/6 525/1/6
f 525/1/6 524/1/6 526/1/6
