# MagicaVoxel @ Ephtracy

# group
o 

# material
mtllib untitled.mtl
usemtl palette

# normals
vn -1 0 0
vn 1 0 0
vn 0 0 1
vn 0 0 -1
vn 0 -1 0
vn 0 1 0

# texcoords
vt 0.00585938 0.5
vt 0.306641 0.5
vt 0.958984 0.5
vt 0.994141 0.5

# verts
v -1.1 0.5 0.8
v -1.1 0.5 -0.6
v -1.1 0.7 0.8
v -1.1 0.7 -0.6
v -1 0 0.7
v -1 0 -0.5
v -1 0.5 0.7
v -1 0.5 -0.5
v 0.9 0.6 0.6
v 0.9 0.6 -0.4
v 0.9 0.7 0.6
v 0.9 0.7 -0.4
v -0.9 0.6 0.6
v -0.9 0.6 -0.4
v -0.9 0.7 0.6
v -0.9 0.7 -0.4
v 1 0 0.7
v 1 0 -0.5
v 1 0.5 0.7
v 1 0.5 -0.5
v 1.1 0.5 0.8
v 1.1 0.5 -0.6
v 1.1 0.7 0.8
v 1.1 0.7 -0.6
v -1.1 0.5 0.8
v -1.1 0.7 0.8
v 1.1 0.5 0.8
v 1.1 0.7 0.8
v -1 0 0.7
v -1 0.5 0.7
v -0.6 0 0.7
v -0.6 0.5 0.7
v -0.5 0.1 0.7
v -0.5 0.4 0.7
v -0.4 0.2 0.7
v -0.4 0.3 0.7
v -0.3 0.2 0.7
v -0.3 0.3 0.7
v -0.1 0.2 0.7
v -0.1 0.3 0.7
v 0.1 0.2 0.7
v 0.1 0.3 0.7
v 0.3 0.2 0.7
v 0.3 0.3 0.7
v 0.4 0.2 0.7
v 0.4 0.3 0.7
v 0.5 0.1 0.7
v 0.5 0.4 0.7
v 0.6 0 0.7
v 0.6 0.5 0.7
v 1 0 0.7
v 1 0.5 0.7
v -0.9 0.6 -0.4
v -0.9 0.7 -0.4
v 0.9 0.6 -0.4
v 0.9 0.7 -0.4
v -0.9 0.6 0.6
v -0.9 0.7 0.6
v 0.9 0.6 0.6
v 0.9 0.7 0.6
v -1 0 -0.5
v -1 0.5 -0.5
v 1 0 -0.5
v 1 0.5 -0.5
v -1.1 0.5 -0.6
v -1.1 0.7 -0.6
v 1.1 0.5 -0.6
v 1.1 0.7 -0.6
v -1 0 0.7
v -0.6 0 0.7
v 0.6 0 0.7
v 1 0 0.7
v -0.6 0 0.6
v 0.6 0 0.6
v -1 0 -0.5
v 1 0 -0.5
v -1.1 0.5 0.8
v 1.1 0.5 0.8
v -1 0.5 0.7
v -0.6 0.5 0.7
v 0.6 0.5 0.7
v 1 0.5 0.7
v -1 0.5 -0.5
v 1 0.5 -0.5
v -1.1 0.5 -0.6
v 1.1 0.5 -0.6
v -0.9 0.6 0.6
v 0.9 0.6 0.6
v -0.9 0.6 -0.4
v 0.9 0.6 -0.4
v -1.1 0.7 0.8
v 1.1 0.7 0.8
v -0.9 0.7 0.6
v 0.9 0.7 0.6
v -0.9 0.7 -0.4
v 0.9 0.7 -0.4
v -1.1 0.7 -0.6
v 1.1 0.7 -0.6

# faces
f 3/3/1 2/3/1 1/3/1
f 4/3/1 2/3/1 3/3/1
f 7/3/1 6/3/1 5/3/1
f 8/3/1 6/3/1 7/3/1
f 11/3/1 10/3/1 9/3/1
f 12/3/1 10/3/1 11/3/1
f 13/3/2 14/3/2 15/3/2
f 15/3/2 14/3/2 16/3/2
f 17/3/2 18/3/2 19/3/2
f 19/3/2 18/3/2 20/3/2
f 21/3/2 22/3/2 23/3/2
f 23/3/2 22/3/2 24/3/2
f 27/3/3 26/3/3 25/3/3
f 28/3/3 26/3/3 27/3/3
f 31/3/3 30/3/3 29/3/3
f 32/3/3 30/3/3 31/3/3
f 33/4/3 32/4/3 31/4/3
f 34/4/3 32/4/3 33/4/3
f 35/3/3 34/3/3 33/3/3
f 36/3/3 34/3/3 35/3/3
f 37/3/3 35/3/3 33/3/3
f 37/4/3 36/4/3 35/4/3
f 38/3/3 34/3/3 36/3/3
f 38/4/3 36/4/3 37/4/3
f 39/3/3 37/3/3 33/3/3
f 39/3/3 38/3/3 37/3/3
f 40/3/3 34/3/3 38/3/3
f 40/3/3 38/3/3 39/3/3
f 41/3/3 39/3/3 33/3/3
f 41/4/3 40/4/3 39/4/3
f 42/3/3 34/3/3 40/3/3
f 42/4/3 40/4/3 41/4/3
f 43/3/3 41/3/3 33/3/3
f 43/3/3 42/3/3 41/3/3
f 44/3/3 34/3/3 42/3/3
f 44/3/3 42/3/3 43/3/3
f 45/3/3 43/3/3 33/3/3
f 45/4/3 44/4/3 43/4/3
f 46/3/3 34/3/3 44/3/3
f 46/4/3 44/4/3 45/4/3
f 47/4/3 33/4/3 31/4/3
f 47/3/3 45/3/3 33/3/3
f 47/3/3 46/3/3 45/3/3
f 48/3/3 34/3/3 46/3/3
f 48/3/3 46/3/3 47/3/3
f 48/4/3 32/4/3 34/4/3
f 49/4/3 47/4/3 31/4/3
f 49/4/3 48/4/3 47/4/3
f 50/4/3 32/4/3 48/4/3
f 50/4/3 48/4/3 49/4/3
f 51/3/3 50/3/3 49/3/3
f 52/3/3 50/3/3 51/3/3
f 55/3/3 54/3/3 53/3/3
f 56/3/3 54/3/3 55/3/3
f 57/3/4 58/3/4 59/3/4
f 59/3/4 58/3/4 60/3/4
f 61/3/4 62/3/4 63/3/4
f 63/3/4 62/3/4 64/3/4
f 65/3/4 66/3/4 67/3/4
f 67/3/4 66/3/4 68/3/4
f 73/3/5 70/3/5 69/3/5
f 73/4/5 71/4/5 70/4/5
f 74/3/5 72/3/5 71/3/5
f 74/4/5 71/4/5 73/4/5
f 75/3/5 73/3/5 69/3/5
f 75/3/5 74/3/5 73/3/5
f 76/3/5 72/3/5 74/3/5
f 76/3/5 74/3/5 75/3/5
f 79/3/5 78/3/5 77/3/5
f 80/3/5 78/3/5 79/3/5
f 81/3/5 78/3/5 80/3/5
f 82/3/5 78/3/5 81/3/5
f 83/3/5 79/3/5 77/3/5
f 84/3/5 78/3/5 82/3/5
f 85/3/5 83/3/5 77/3/5
f 85/3/5 84/3/5 83/3/5
f 86/3/5 78/3/5 84/3/5
f 86/3/5 84/3/5 85/3/5
f 87/1/6 88/1/6 89/1/6
f 89/1/6 88/1/6 90/1/6
f 91/3/6 92/3/6 93/3/6
f 93/3/6 92/3/6 94/3/6
f 91/3/6 93/3/6 95/3/6
f 94/3/6 92/3/6 96/3/6
f 91/3/6 95/3/6 97/3/6
f 95/3/6 96/3/6 97/3/6
f 96/3/6 92/3/6 98/3/6
f 97/3/6 96/3/6 98/3/6
