# MagicaVoxel @ Ephtracy

# group
o 

# material
mtllib penguin09_rightLeg.mtl
usemtl palette

# normals
vn -1 0 0
vn 1 0 0
vn 0 0 1
vn 0 0 -1
vn 0 -1 0
vn 0 1 0

# texcoords
vt 0.185547 0.5
vt 0.572266 0.5
vt 0.962891 0.5

# verts
v -0.8 0 0.6
v -0.8 0 0.1
v -0.8 0.1 0.6
v -0.8 0.1 0.4
v -0.8 0.1 0.1
v -0.8 0.1 0
v -0.8 0.2 0.4
v -0.8 0.2 0.2
v -0.8 0.2 0
v -0.8 0.2 -0.2
v -0.8 0.5 0.2
v -0.8 0.5 -0.2
v -0.7 0 0.7
v -0.7 0 0.6
v -0.7 0 0.1
v -0.7 0 0
v -0.7 0.1 0.7
v -0.7 0.1 0.6
v -0.7 0.1 0.4
v -0.7 0.1 0.1
v -0.7 0.1 0
v -0.7 0.1 -0.1
v -0.7 0.2 0.6
v -0.7 0.2 0.4
v -0.7 0.2 0.3
v -0.7 0.2 0.2
v -0.7 0.2 0
v -0.7 0.2 -0.1
v -0.7 0.2 -0.2
v -0.7 0.2 -0.3
v -0.7 0.5 0.3
v -0.7 0.5 0.2
v -0.7 0.5 -0.2
v -0.7 0.5 -0.3
v -0.6 0 0.9
v -0.6 0 0.7
v -0.6 0 0
v -0.6 0 -0.2
v -0.6 0.1 0.9
v -0.6 0.1 0.7
v -0.6 0.1 0.6
v -0.6 0.1 0
v -0.6 0.1 -0.1
v -0.6 0.1 -0.2
v -0.6 0.1 -0.3
v -0.6 0.2 0.7
v -0.6 0.2 0.6
v -0.6 0.2 0.4
v -0.6 0.2 0.3
v -0.6 0.2 -0.1
v -0.6 0.2 -0.3
v -0.6 0.2 -0.4
v -0.6 0.5 0.4
v -0.6 0.5 0.3
v -0.6 0.5 -0.3
v -0.6 0.5 -0.4
v -0.4 0 0.9
v -0.4 0 0.7
v -0.4 0 0
v -0.4 0 -0.2
v -0.4 0.1 0.9
v -0.4 0.1 0.7
v -0.4 0.1 0.6
v -0.4 0.1 0
v -0.4 0.1 -0.1
v -0.4 0.1 -0.2
v -0.4 0.1 -0.3
v -0.4 0.2 0.7
v -0.4 0.2 0.6
v -0.4 0.2 0.4
v -0.4 0.2 0.3
v -0.4 0.2 -0.1
v -0.4 0.2 -0.3
v -0.4 0.2 -0.4
v -0.4 0.5 0.4
v -0.4 0.5 0.3
v -0.4 0.5 -0.3
v -0.4 0.5 -0.4
v -0.3 0 0.7
v -0.3 0 0.6
v -0.3 0 0.1
v -0.3 0 0
v -0.3 0.1 0.7
v -0.3 0.1 0.6
v -0.3 0.1 0.4
v -0.3 0.1 0.1
v -0.3 0.1 0
v -0.3 0.1 -0.1
v -0.3 0.2 0.6
v -0.3 0.2 0.4
v -0.3 0.2 0.3
v -0.3 0.2 0.2
v -0.3 0.2 0
v -0.3 0.2 -0.1
v -0.3 0.2 -0.2
v -0.3 0.2 -0.3
v -0.3 0.5 0.3
v -0.3 0.5 0.2
v -0.3 0.5 -0.2
v -0.3 0.5 -0.3
v -0.2 0 0.6
v -0.2 0 0.1
v -0.2 0.1 0.6
v -0.2 0.1 0.4
v -0.2 0.1 0.1
v -0.2 0.1 0
v -0.2 0.2 0.4
v -0.2 0.2 0.2
v -0.2 0.2 0
v -0.2 0.2 -0.2
v -0.2 0.5 0.2
v -0.2 0.5 -0.2
v -0.6 0 0.9
v -0.6 0.1 0.9
v -0.4 0 0.9
v -0.4 0.1 0.9
v -0.7 0 0.7
v -0.7 0.1 0.7
v -0.6 0 0.7
v -0.6 0.1 0.7
v -0.6 0.2 0.7
v -0.4 0 0.7
v -0.4 0.1 0.7
v -0.4 0.2 0.7
v -0.3 0 0.7
v -0.3 0.1 0.7
v -0.8 0 0.6
v -0.8 0.1 0.6
v -0.7 0 0.6
v -0.7 0.1 0.6
v -0.7 0.2 0.6
v -0.6 0.1 0.6
v -0.6 0.2 0.6
v -0.4 0.1 0.6
v -0.4 0.2 0.6
v -0.3 0 0.6
v -0.3 0.1 0.6
v -0.3 0.2 0.6
v -0.2 0 0.6
v -0.2 0.1 0.6
v -0.8 0.1 0.4
v -0.8 0.2 0.4
v -0.7 0.1 0.4
v -0.7 0.2 0.4
v -0.6 0.2 0.4
v -0.6 0.5 0.4
v -0.4 0.2 0.4
v -0.4 0.5 0.4
v -0.3 0.1 0.4
v -0.3 0.2 0.4
v -0.2 0.1 0.4
v -0.2 0.2 0.4
v -0.7 0.2 0.3
v -0.7 0.5 0.3
v -0.6 0.2 0.3
v -0.6 0.5 0.3
v -0.4 0.2 0.3
v -0.4 0.5 0.3
v -0.3 0.2 0.3
v -0.3 0.5 0.3
v -0.8 0.2 0.2
v -0.8 0.5 0.2
v -0.7 0.2 0.2
v -0.7 0.5 0.2
v -0.3 0.2 0.2
v -0.3 0.5 0.2
v -0.2 0.2 0.2
v -0.2 0.5 0.2
v -0.8 0 0.1
v -0.8 0.1 0.1
v -0.7 0 0.1
v -0.7 0.1 0.1
v -0.3 0 0.1
v -0.3 0.1 0.1
v -0.2 0 0.1
v -0.2 0.1 0.1
v -0.8 0.1 0
v -0.8 0.2 0
v -0.7 0 0
v -0.7 0.1 0
v -0.7 0.2 0
v -0.6 0 0
v -0.6 0.1 0
v -0.4 0 0
v -0.4 0.1 0
v -0.3 0 0
v -0.3 0.1 0
v -0.3 0.2 0
v -0.2 0.1 0
v -0.2 0.2 0
v -0.7 0.1 -0.1
v -0.7 0.2 -0.1
v -0.6 0.1 -0.1
v -0.6 0.2 -0.1
v -0.4 0.1 -0.1
v -0.4 0.2 -0.1
v -0.3 0.1 -0.1
v -0.3 0.2 -0.1
v -0.8 0.2 -0.2
v -0.8 0.5 -0.2
v -0.7 0.2 -0.2
v -0.7 0.5 -0.2
v -0.6 0 -0.2
v -0.6 0.1 -0.2
v -0.4 0 -0.2
v -0.4 0.1 -0.2
v -0.3 0.2 -0.2
v -0.3 0.5 -0.2
v -0.2 0.2 -0.2
v -0.2 0.5 -0.2
v -0.7 0.2 -0.3
v -0.7 0.5 -0.3
v -0.6 0.1 -0.3
v -0.6 0.2 -0.3
v -0.6 0.5 -0.3
v -0.4 0.1 -0.3
v -0.4 0.2 -0.3
v -0.4 0.5 -0.3
v -0.3 0.2 -0.3
v -0.3 0.5 -0.3
v -0.6 0.2 -0.4
v -0.6 0.5 -0.4
v -0.4 0.2 -0.4
v -0.4 0.5 -0.4
v -0.6 0 0.9
v -0.4 0 0.9
v -0.7 0 0.7
v -0.6 0 0.7
v -0.4 0 0.7
v -0.3 0 0.7
v -0.8 0 0.6
v -0.7 0 0.6
v -0.3 0 0.6
v -0.2 0 0.6
v -0.8 0 0.1
v -0.7 0 0.1
v -0.3 0 0.1
v -0.2 0 0.1
v -0.7 0 0
v -0.6 0 0
v -0.4 0 0
v -0.3 0 0
v -0.6 0 -0.2
v -0.4 0 -0.2
v -0.8 0.1 0.1
v -0.7 0.1 0.1
v -0.3 0.1 0.1
v -0.2 0.1 0.1
v -0.8 0.1 0
v -0.7 0.1 0
v -0.6 0.1 0
v -0.4 0.1 0
v -0.3 0.1 0
v -0.2 0.1 0
v -0.7 0.1 -0.1
v -0.6 0.1 -0.1
v -0.4 0.1 -0.1
v -0.3 0.1 -0.1
v -0.6 0.1 -0.2
v -0.4 0.1 -0.2
v -0.6 0.1 -0.3
v -0.4 0.1 -0.3
v -0.8 0.2 0
v -0.7 0.2 0
v -0.3 0.2 0
v -0.2 0.2 0
v -0.7 0.2 -0.1
v -0.6 0.2 -0.1
v -0.4 0.2 -0.1
v -0.3 0.2 -0.1
v -0.8 0.2 -0.2
v -0.7 0.2 -0.2
v -0.3 0.2 -0.2
v -0.2 0.2 -0.2
v -0.7 0.2 -0.3
v -0.6 0.2 -0.3
v -0.4 0.2 -0.3
v -0.3 0.2 -0.3
v -0.6 0.2 -0.4
v -0.4 0.2 -0.4
v -0.6 0.1 0.9
v -0.4 0.1 0.9
v -0.7 0.1 0.7
v -0.6 0.1 0.7
v -0.4 0.1 0.7
v -0.3 0.1 0.7
v -0.8 0.1 0.6
v -0.7 0.1 0.6
v -0.6 0.1 0.6
v -0.4 0.1 0.6
v -0.3 0.1 0.6
v -0.2 0.1 0.6
v -0.8 0.1 0.4
v -0.7 0.1 0.4
v -0.3 0.1 0.4
v -0.2 0.1 0.4
v -0.6 0.2 0.7
v -0.4 0.2 0.7
v -0.7 0.2 0.6
v -0.6 0.2 0.6
v -0.4 0.2 0.6
v -0.3 0.2 0.6
v -0.8 0.2 0.4
v -0.7 0.2 0.4
v -0.6 0.2 0.4
v -0.4 0.2 0.4
v -0.3 0.2 0.4
v -0.2 0.2 0.4
v -0.7 0.2 0.3
v -0.6 0.2 0.3
v -0.4 0.2 0.3
v -0.3 0.2 0.3
v -0.8 0.2 0.2
v -0.7 0.2 0.2
v -0.3 0.2 0.2
v -0.2 0.2 0.2
v -0.6 0.5 0.4
v -0.4 0.5 0.4
v -0.7 0.5 0.3
v -0.6 0.5 0.3
v -0.4 0.5 0.3
v -0.3 0.5 0.3
v -0.8 0.5 0.2
v -0.7 0.5 0.2
v -0.3 0.5 0.2
v -0.2 0.5 0.2
v -0.7 0.5 0.1
v -0.3 0.5 0.1
v -0.4 0.5 -0.1
v -0.3 0.5 -0.1
v -0.8 0.5 -0.2
v -0.7 0.5 -0.2
v -0.4 0.5 -0.2
v -0.3 0.5 -0.2
v -0.2 0.5 -0.2
v -0.7 0.5 -0.3
v -0.6 0.5 -0.3
v -0.4 0.5 -0.3
v -0.3 0.5 -0.3
v -0.6 0.5 -0.4
v -0.4 0.5 -0.4

# faces
f 3/1/1 2/1/1 1/1/1
f 4/1/1 2/1/1 3/1/1
f 5/1/1 2/1/1 4/1/1
f 7/1/1 6/1/1 5/1/1
f 7/1/1 5/1/1 4/1/1
f 8/1/1 6/1/1 7/1/1
f 9/1/1 6/1/1 8/1/1
f 11/3/1 10/3/1 9/3/1
f 11/3/1 9/3/1 8/3/1
f 12/3/1 10/3/1 11/3/1
f 17/1/1 14/1/1 13/1/1
f 18/1/1 14/1/1 17/1/1
f 20/1/1 16/1/1 15/1/1
f 21/1/1 16/1/1 20/1/1
f 23/1/1 19/1/1 18/1/1
f 24/1/1 19/1/1 23/1/1
f 27/1/1 22/1/1 21/1/1
f 28/1/1 22/1/1 27/1/1
f 31/3/1 26/3/1 25/3/1
f 32/3/1 26/3/1 31/3/1
f 33/3/1 30/3/1 29/3/1
f 34/3/1 30/3/1 33/3/1
f 39/1/1 36/1/1 35/1/1
f 40/1/1 36/1/1 39/1/1
f 42/1/1 38/1/1 37/1/1
f 43/1/1 38/1/1 42/1/1
f 44/1/1 38/1/1 43/1/1
f 46/1/1 41/1/1 40/1/1
f 47/1/1 41/1/1 46/1/1
f 50/1/1 45/1/1 44/1/1
f 50/1/1 44/1/1 43/1/1
f 51/1/1 45/1/1 50/1/1
f 53/3/1 49/3/1 48/3/1
f 54/3/1 49/3/1 53/3/1
f 55/3/1 52/3/1 51/3/1
f 56/3/1 52/3/1 55/3/1
f 57/1/2 58/1/2 61/1/2
f 61/1/2 58/1/2 62/1/2
f 59/1/2 60/1/2 64/1/2
f 64/1/2 60/1/2 65/1/2
f 65/1/2 60/1/2 66/1/2
f 62/1/2 63/1/2 68/1/2
f 68/1/2 63/1/2 69/1/2
f 66/1/2 67/1/2 72/1/2
f 65/1/2 66/1/2 72/1/2
f 72/1/2 67/1/2 73/1/2
f 70/3/2 71/3/2 75/3/2
f 75/3/2 71/3/2 76/3/2
f 73/3/2 74/3/2 77/3/2
f 77/3/2 74/3/2 78/3/2
f 79/1/2 80/1/2 83/1/2
f 83/1/2 80/1/2 84/1/2
f 81/1/2 82/1/2 86/1/2
f 86/1/2 82/1/2 87/1/2
f 84/1/2 85/1/2 89/1/2
f 89/1/2 85/1/2 90/1/2
f 87/1/2 88/1/2 93/1/2
f 93/1/2 88/1/2 94/1/2
f 91/3/2 92/3/2 97/3/2
f 97/3/2 92/3/2 98/3/2
f 95/3/2 96/3/2 99/3/2
f 99/3/2 96/3/2 100/3/2
f 101/1/2 102/1/2 103/1/2
f 103/1/2 102/1/2 104/1/2
f 104/1/2 102/1/2 105/1/2
f 105/1/2 106/1/2 107/1/2
f 104/1/2 105/1/2 107/1/2
f 107/1/2 106/1/2 108/1/2
f 108/1/2 106/1/2 109/1/2
f 109/3/2 110/3/2 111/3/2
f 108/3/2 109/3/2 111/3/2
f 111/3/2 110/3/2 112/3/2
f 115/1/3 114/1/3 113/1/3
f 116/1/3 114/1/3 115/1/3
f 119/1/3 118/1/3 117/1/3
f 120/1/3 118/1/3 119/1/3
f 123/1/3 121/1/3 120/1/3
f 124/1/3 121/1/3 123/1/3
f 125/1/3 123/1/3 122/1/3
f 126/1/3 123/1/3 125/1/3
f 129/1/3 128/1/3 127/1/3
f 130/1/3 128/1/3 129/1/3
f 132/1/3 131/1/3 130/1/3
f 133/1/3 131/1/3 132/1/3
f 137/1/3 135/1/3 134/1/3
f 138/1/3 135/1/3 137/1/3
f 139/1/3 137/1/3 136/1/3
f 140/1/3 137/1/3 139/1/3
f 143/1/3 142/1/3 141/1/3
f 144/1/3 142/1/3 143/1/3
f 147/3/3 146/3/3 145/3/3
f 148/3/3 146/3/3 147/3/3
f 151/1/3 150/1/3 149/1/3
f 152/1/3 150/1/3 151/1/3
f 155/3/3 154/3/3 153/3/3
f 156/3/3 154/3/3 155/3/3
f 159/3/3 158/3/3 157/3/3
f 160/3/3 158/3/3 159/3/3
f 163/3/3 162/3/3 161/3/3
f 164/3/3 162/3/3 163/3/3
f 167/3/3 166/3/3 165/3/3
f 168/3/3 166/3/3 167/3/3
f 169/1/4 170/1/4 171/1/4
f 171/1/4 170/1/4 172/1/4
f 173/1/4 174/1/4 175/1/4
f 175/1/4 174/1/4 176/1/4
f 177/1/4 178/1/4 180/1/4
f 180/1/4 178/1/4 181/1/4
f 179/1/4 180/1/4 182/1/4
f 182/1/4 180/1/4 183/1/4
f 184/1/4 185/1/4 186/1/4
f 186/1/4 185/1/4 187/1/4
f 187/1/4 188/1/4 189/1/4
f 189/1/4 188/1/4 190/1/4
f 191/1/4 192/1/4 193/1/4
f 193/1/4 192/1/4 194/1/4
f 195/1/4 196/1/4 197/1/4
f 197/1/4 196/1/4 198/1/4
f 199/3/4 200/3/4 201/3/4
f 201/3/4 200/3/4 202/3/4
f 203/1/4 204/1/4 205/1/4
f 205/1/4 204/1/4 206/1/4
f 207/3/4 208/3/4 209/3/4
f 209/3/4 208/3/4 210/3/4
f 211/3/4 212/3/4 214/3/4
f 214/3/4 212/3/4 215/3/4
f 213/1/4 214/1/4 216/1/4
f 216/1/4 214/1/4 217/1/4
f 217/3/4 218/3/4 219/3/4
f 219/3/4 218/3/4 220/3/4
f 221/3/4 222/3/4 223/3/4
f 223/3/4 222/3/4 224/3/4
f 228/1/5 226/1/5 225/1/5
f 229/1/5 226/1/5 228/1/5
f 232/1/5 228/1/5 227/1/5
f 232/1/5 230/1/5 229/1/5
f 232/1/5 229/1/5 228/1/5
f 233/1/5 230/1/5 232/1/5
f 235/1/5 232/1/5 231/1/5
f 235/1/5 234/1/5 233/1/5
f 235/1/5 233/1/5 232/1/5
f 236/1/5 234/1/5 235/1/5
f 237/1/5 234/1/5 236/1/5
f 238/1/5 234/1/5 237/1/5
f 239/1/5 237/1/5 236/1/5
f 240/1/5 237/1/5 239/1/5
f 241/1/5 237/1/5 240/1/5
f 242/1/5 237/1/5 241/1/5
f 243/1/5 241/1/5 240/1/5
f 244/1/5 241/1/5 243/1/5
f 249/1/5 246/1/5 245/1/5
f 250/1/5 246/1/5 249/1/5
f 253/1/5 248/1/5 247/1/5
f 254/1/5 248/1/5 253/1/5
f 255/1/5 251/1/5 250/1/5
f 256/1/5 251/1/5 255/1/5
f 257/1/5 253/1/5 252/1/5
f 258/1/5 253/1/5 257/1/5
f 261/1/5 260/1/5 259/1/5
f 262/1/5 260/1/5 261/1/5
f 267/3/5 264/3/5 263/3/5
f 270/3/5 266/3/5 265/3/5
f 271/3/5 268/3/5 267/3/5
f 271/3/5 267/3/5 263/3/5
f 272/3/5 268/3/5 271/3/5
f 273/3/5 270/3/5 269/3/5
f 273/3/5 266/3/5 270/3/5
f 274/3/5 266/3/5 273/3/5
f 275/3/5 268/3/5 272/3/5
f 276/3/5 268/3/5 275/3/5
f 277/3/5 273/3/5 269/3/5
f 278/3/5 273/3/5 277/3/5
f 279/3/5 277/3/5 276/3/5
f 280/3/5 277/3/5 279/3/5
f 281/1/6 282/1/6 284/1/6
f 284/1/6 282/1/6 285/1/6
f 283/1/6 284/1/6 288/1/6
f 288/1/6 284/1/6 289/1/6
f 285/1/6 286/1/6 290/1/6
f 290/1/6 286/1/6 291/1/6
f 287/1/6 288/1/6 293/1/6
f 293/1/6 288/1/6 294/1/6
f 291/1/6 292/1/6 295/1/6
f 295/1/6 292/1/6 296/1/6
f 297/1/6 298/1/6 300/1/6
f 300/1/6 298/1/6 301/1/6
f 299/1/6 300/1/6 304/1/6
f 301/1/6 302/1/6 304/1/6
f 300/1/6 301/1/6 304/1/6
f 304/1/6 302/1/6 305/1/6
f 305/1/6 302/1/6 306/1/6
f 306/1/6 302/1/6 307/1/6
f 303/1/6 304/1/6 309/1/6
f 304/1/6 305/1/6 309/1/6
f 309/1/6 305/1/6 310/1/6
f 307/1/6 308/1/6 311/1/6
f 306/1/6 307/1/6 311/1/6
f 311/1/6 308/1/6 312/1/6
f 303/1/6 309/1/6 313/1/6
f 313/1/6 309/1/6 314/1/6
f 312/1/6 308/1/6 315/1/6
f 315/1/6 308/1/6 316/1/6
f 317/3/6 318/3/6 320/3/6
f 320/3/6 318/3/6 321/3/6
f 319/3/6 320/3/6 324/3/6
f 321/3/6 322/3/6 324/3/6
f 320/3/6 321/3/6 324/3/6
f 324/3/6 322/3/6 325/3/6
f 323/3/6 324/3/6 327/3/6
f 325/3/6 326/3/6 327/3/6
f 324/3/6 325/3/6 327/3/6
f 327/3/6 326/3/6 328/3/6
f 327/2/6 328/2/6 329/2/6
f 328/3/6 326/3/6 330/3/6
f 329/2/6 328/2/6 330/2/6
f 323/3/6 327/3/6 331/3/6
f 327/2/6 329/2/6 332/2/6
f 331/3/6 327/3/6 332/3/6
f 329/3/6 330/3/6 333/3/6
f 332/2/6 329/2/6 333/2/6
f 330/3/6 326/3/6 334/3/6
f 333/3/6 330/3/6 334/3/6
f 334/3/6 326/3/6 335/3/6
f 332/3/6 333/3/6 336/3/6
f 333/3/6 334/3/6 336/3/6
f 336/3/6 334/3/6 337/3/6
f 337/3/6 334/3/6 338/3/6
f 338/3/6 334/3/6 339/3/6
f 337/3/6 338/3/6 340/3/6
f 340/3/6 338/3/6 341/3/6
