# MagicaVoxel @ Ephtracy

# group
o 

# material
mtllib char.mtl
usemtl palette

# normals
vn -1 0 0
vn 1 0 0
vn 0 0 1
vn 0 0 -1
vn 0 -1 0
vn 0 1 0

# texcoords
vt 0.0292969 0.5
vt 0.0566406 0.5
vt 0.310547 0.5
vt 0.365234 0.5
vt 0.591797 0.5
vt 0.669922 0.5
vt 0.947266 0.5
vt 0.958984 0.5
vt 0.978516 0.5
vt 0.986328 0.5

# verts
v -1.1 1.5 0.2
v -1.1 1.5 -0.2
v -1.1 1.9 0.2
v -1.1 1.9 -0.2
v -0.7 2 0
v -0.7 2 -0.4
v -0.7 2.1 0.2
v -0.7 2.1 0.1
v -0.7 2.1 -0.4
v -0.7 2.1 -0.5
v -0.7 2.2 0.1
v -0.7 2.2 0
v -0.7 2.3 0.4
v -0.7 2.3 0.2
v -0.7 2.3 0.1
v -0.7 2.4 0.5
v -0.7 2.4 0.4
v -0.7 2.8 0.5
v -0.7 2.8 -0.5
v -0.6 1.9 0.3
v -0.6 1.9 0.2
v -0.6 1.9 -0.2
v -0.6 1.9 -0.4
v -0.6 2 0.4
v -0.6 2 0.3
v -0.6 2 0
v -0.6 2 -0.4
v -0.6 2 -0.5
v -0.6 2.1 0.2
v -0.6 2.1 0.1
v -0.6 2.1 -0.4
v -0.6 2.1 -0.5
v -0.6 2.1 -0.6
v -0.6 2.2 0.1
v -0.6 2.2 0
v -0.6 2.3 0.5
v -0.6 2.3 0.4
v -0.6 2.3 0.2
v -0.6 2.4 0.5
v -0.6 2.4 0.4
v -0.6 2.8 0.5
v -0.6 2.8 -0.5
v -0.6 2.8 -0.6
v -0.6 3 0.5
v -0.6 3 -0.5
v -0.5 0.3 0.3
v -0.5 0.3 -0.2
v -0.5 0.5 0.3
v -0.5 0.5 0.2
v -0.5 0.5 -0.2
v -0.5 0.7 0.2
v -0.5 0.7 -0.2
v -0.5 1.3 0.2
v -0.5 1.3 -0.2
v -0.5 1.5 0.2
v -0.5 1.5 -0.2
v -0.5 1.9 0.4
v -0.5 1.9 0.3
v -0.5 2 0.4
v -0.5 2 0.3
v -0.5 2.8 0.6
v -0.5 2.8 0.5
v -0.5 2.9 0.6
v -0.5 2.9 0.5
v -0.5 3 0.5
v -0.5 3 -0.5
v -0.5 3.1 0.5
v -0.5 3.1 -0.5
v -0.4 2.8 0.8
v -0.4 2.8 0.6
v -0.4 2.9 0.8
v -0.4 2.9 0.6
v -0.2 2.5 0.5
v -0.2 2.5 0.4
v -0.2 2.6 0.5
v -0.2 2.6 0.4
v -0.1 2.3 0.5
v -0.1 2.3 0.4
v -0.1 2.5 0.5
v -0.1 2.5 0.4
v 0.1 0.3 0.3
v 0.1 0.3 -0.2
v 0.1 0.5 0.3
v 0.1 0.5 0.2
v 0.1 0.5 -0.2
v 0.1 0.7 0.2
v 0.1 0.7 0.1
v 0.1 0.7 -0.1
v 0.1 0.7 -0.2
v 0.1 1 0.1
v 0.1 1 -0.1
v 0.3 2.5 0.5
v 0.3 2.5 0.4
v 0.3 2.6 0.5
v 0.3 2.6 0.4
v 0.4 2.4 0.5
v 0.4 2.4 0.4
v 0.4 2.5 0.5
v 0.4 2.5 0.4
v 0.5 2.3 0.5
v 0.5 2.3 0.4
v 0.5 2.4 0.5
v 0.5 2.4 0.4
v -0.5 2.3 0.5
v -0.5 2.3 0.4
v -0.5 2.4 0.5
v -0.5 2.4 0.4
v -0.4 2.4 0.5
v -0.4 2.4 0.4
v -0.4 2.6 0.5
v -0.4 2.6 0.4
v -0.1 0.3 0.3
v -0.1 0.3 -0.2
v -0.1 0.5 0.3
v -0.1 0.5 0.2
v -0.1 0.5 -0.2
v -0.1 0.7 0.2
v -0.1 0.7 0.1
v -0.1 0.7 -0.1
v -0.1 0.7 -0.2
v -0.1 1 0.1
v -0.1 1 -0.1
v 0.1 2.3 0.5
v 0.1 2.3 0.4
v 0.1 2.6 0.5
v 0.1 2.6 0.4
v 0.4 2.8 0.8
v 0.4 2.8 0.6
v 0.4 2.9 0.8
v 0.4 2.9 0.6
v 0.5 0.3 0.3
v 0.5 0.3 -0.2
v 0.5 0.5 0.3
v 0.5 0.5 0.2
v 0.5 0.5 -0.2
v 0.5 0.7 0.2
v 0.5 0.7 -0.2
v 0.5 1.3 0.2
v 0.5 1.3 -0.2
v 0.5 1.5 0.2
v 0.5 1.5 -0.2
v 0.5 1.9 0.4
v 0.5 1.9 0.3
v 0.5 2 0.4
v 0.5 2 0.3
v 0.5 2.8 0.6
v 0.5 2.8 0.5
v 0.5 2.9 0.6
v 0.5 2.9 0.5
v 0.5 3 0.5
v 0.5 3 -0.5
v 0.5 3.1 0.5
v 0.5 3.1 -0.5
v 0.6 1.9 0.3
v 0.6 1.9 0.2
v 0.6 1.9 -0.2
v 0.6 1.9 -0.4
v 0.6 2 0.4
v 0.6 2 0.3
v 0.6 2 0
v 0.6 2 -0.4
v 0.6 2 -0.5
v 0.6 2.1 0.2
v 0.6 2.1 0.1
v 0.6 2.1 -0.4
v 0.6 2.1 -0.5
v 0.6 2.1 -0.6
v 0.6 2.2 0.1
v 0.6 2.2 0
v 0.6 2.3 0.5
v 0.6 2.3 0.4
v 0.6 2.3 0.2
v 0.6 2.4 0.5
v 0.6 2.4 0.4
v 0.6 2.8 0.5
v 0.6 2.8 -0.5
v 0.6 2.8 -0.6
v 0.6 3 0.5
v 0.6 3 -0.5
v 0.7 2 0
v 0.7 2 -0.4
v 0.7 2.1 0.2
v 0.7 2.1 0.1
v 0.7 2.1 -0.4
v 0.7 2.1 -0.5
v 0.7 2.2 0.1
v 0.7 2.2 0
v 0.7 2.3 0.4
v 0.7 2.3 0.2
v 0.7 2.3 0.1
v 0.7 2.4 0.5
v 0.7 2.4 0.4
v 0.7 2.8 0.5
v 0.7 2.8 -0.5
v 1.1 1.5 0.2
v 1.1 1.5 -0.2
v 1.1 1.9 0.2
v 1.1 1.9 -0.2
v -0.4 2.8 0.8
v -0.4 2.9 0.8
v 0.4 2.8 0.8
v 0.4 2.9 0.8
v -0.5 2.8 0.6
v -0.5 2.9 0.6
v -0.4 2.8 0.6
v -0.4 2.9 0.6
v 0.4 2.8 0.6
v 0.4 2.9 0.6
v 0.5 2.8 0.6
v 0.5 2.9 0.6
v -0.7 2.4 0.5
v -0.7 2.8 0.5
v -0.6 2.3 0.5
v -0.6 2.4 0.5
v -0.6 2.8 0.5
v -0.6 3 0.5
v -0.5 2.3 0.5
v -0.5 2.4 0.5
v -0.5 2.8 0.5
v -0.5 2.9 0.5
v -0.5 3 0.5
v -0.5 3.1 0.5
v -0.4 2.4 0.5
v -0.4 2.6 0.5
v -0.2 2.5 0.5
v -0.2 2.6 0.5
v -0.1 2.3 0.5
v -0.1 2.5 0.5
v 0.1 2.3 0.5
v 0.1 2.6 0.5
v 0.3 2.5 0.5
v 0.3 2.6 0.5
v 0.4 2.4 0.5
v 0.4 2.5 0.5
v 0.5 2.3 0.5
v 0.5 2.4 0.5
v 0.5 2.8 0.5
v 0.5 2.9 0.5
v 0.5 3 0.5
v 0.5 3.1 0.5
v 0.6 2.3 0.5
v 0.6 2.4 0.5
v 0.6 2.8 0.5
v 0.6 3 0.5
v 0.7 2.4 0.5
v 0.7 2.8 0.5
v -0.7 2.3 0.4
v -0.7 2.4 0.4
v -0.6 2 0.4
v -0.6 2.3 0.4
v -0.6 2.4 0.4
v -0.5 1.9 0.4
v -0.5 2 0.4
v -0.5 2.1 0.4
v -0.5 2.3 0.4
v -0.5 2.4 0.4
v -0.4 2.1 0.4
v -0.4 2.3 0.4
v -0.4 2.4 0.4
v -0.4 2.6 0.4
v -0.3 2 0.4
v -0.3 2.1 0.4
v -0.2 2.1 0.4
v -0.2 2.3 0.4
v -0.2 2.4 0.4
v -0.2 2.5 0.4
v -0.2 2.6 0.4
v -0.1 2.3 0.4
v -0.1 2.5 0.4
v 0.1 2.3 0.4
v 0.1 2.6 0.4
v 0.2 2.1 0.4
v 0.2 2.3 0.4
v 0.2 2.4 0.4
v 0.3 2 0.4
v 0.3 2.1 0.4
v 0.3 2.5 0.4
v 0.3 2.6 0.4
v 0.4 2.1 0.4
v 0.4 2.3 0.4
v 0.4 2.4 0.4
v 0.4 2.5 0.4
v 0.5 1.9 0.4
v 0.5 2 0.4
v 0.5 2.1 0.4
v 0.5 2.3 0.4
v 0.5 2.4 0.4
v 0.6 2 0.4
v 0.6 2.3 0.4
v 0.6 2.4 0.4
v 0.7 2.3 0.4
v 0.7 2.4 0.4
v -0.6 1.9 0.3
v -0.6 2 0.3
v -0.5 0.3 0.3
v -0.5 0.5 0.3
v -0.5 1.9 0.3
v -0.5 2 0.3
v -0.1 0.3 0.3
v -0.1 0.5 0.3
v 0.1 0.3 0.3
v 0.1 0.5 0.3
v 0.5 0.3 0.3
v 0.5 0.5 0.3
v 0.5 1.9 0.3
v 0.5 2 0.3
v 0.6 1.9 0.3
v 0.6 2 0.3
v -1.1 1.5 0.2
v -1.1 1.9 0.2
v -0.8 1.5 0.2
v -0.8 1.9 0.2
v -0.7 1.5 0.2
v -0.7 1.9 0.2
v -0.7 2.1 0.2
v -0.7 2.3 0.2
v -0.6 1.9 0.2
v -0.6 2.1 0.2
v -0.6 2.3 0.2
v -0.5 0.5 0.2
v -0.5 0.7 0.2
v -0.5 1.3 0.2
v -0.5 1.5 0.2
v -0.3 1.6 0.2
v -0.3 1.9 0.2
v -0.2 1.6 0.2
v -0.2 1.7 0.2
v -0.1 0.5 0.2
v -0.1 0.7 0.2
v -0.1 1.3 0.2
v -0.1 1.7 0.2
v -0.1 1.8 0.2
v 0.1 0.5 0.2
v 0.1 0.7 0.2
v 0.1 1.3 0.2
v 0.1 1.7 0.2
v 0.1 1.8 0.2
v 0.2 1.6 0.2
v 0.2 1.7 0.2
v 0.3 1.6 0.2
v 0.3 1.9 0.2
v 0.5 0.5 0.2
v 0.5 0.7 0.2
v 0.5 1.3 0.2
v 0.5 1.5 0.2
v 0.6 1.9 0.2
v 0.6 2.1 0.2
v 0.6 2.3 0.2
v 0.7 1.5 0.2
v 0.7 1.9 0.2
v 0.7 2.1 0.2
v 0.7 2.3 0.2
v 0.8 1.5 0.2
v 0.8 1.9 0.2
v 1.1 1.5 0.2
v 1.1 1.9 0.2
v -0.7 2 0
v -0.7 2.2 0
v -0.6 2 0
v -0.6 2.2 0
v 0.6 2 0
v 0.6 2.2 0
v 0.7 2 0
v 0.7 2.2 0
v -0.1 0.7 -0.1
v -0.1 1 -0.1
v 0.1 0.7 -0.1
v 0.1 1 -0.1
v -0.7 2.1 0.1
v -0.7 2.2 0.1
v -0.6 2.1 0.1
v -0.6 2.2 0.1
v -0.1 0.7 0.1
v -0.1 1 0.1
v 0.1 0.7 0.1
v 0.1 1 0.1
v 0.6 2.1 0.1
v 0.6 2.2 0.1
v 0.7 2.1 0.1
v 0.7 2.2 0.1
v -1.1 1.5 -0.2
v -1.1 1.9 -0.2
v -0.8 1.5 -0.2
v -0.8 1.9 -0.2
v -0.7 1.5 -0.2
v -0.7 1.9 -0.2
v -0.6 1.9 -0.2
v -0.5 0.3 -0.2
v -0.5 0.5 -0.2
v -0.5 0.7 -0.2
v -0.5 1.3 -0.2
v -0.5 1.5 -0.2
v -0.1 0.3 -0.2
v -0.1 0.5 -0.2
v -0.1 0.7 -0.2
v 0.1 0.3 -0.2
v 0.1 0.5 -0.2
v 0.1 0.7 -0.2
v 0.5 0.3 -0.2
v 0.5 0.5 -0.2
v 0.5 0.7 -0.2
v 0.5 1.3 -0.2
v 0.5 1.5 -0.2
v 0.6 1.9 -0.2
v 0.7 1.5 -0.2
v 0.7 1.9 -0.2
v 0.8 1.5 -0.2
v 0.8 1.9 -0.2
v 1.1 1.5 -0.2
v 1.1 1.9 -0.2
v -0.7 2 -0.4
v -0.7 2.1 -0.4
v -0.6 1.9 -0.4
v -0.6 2 -0.4
v -0.6 2.1 -0.4
v 0.6 1.9 -0.4
v 0.6 2 -0.4
v 0.6 2.1 -0.4
v 0.7 2 -0.4
v 0.7 2.1 -0.4
v -0.7 2.1 -0.5
v -0.7 2.8 -0.5
v -0.6 2 -0.5
v -0.6 2.1 -0.5
v -0.6 2.8 -0.5
v -0.6 3 -0.5
v -0.5 3 -0.5
v -0.5 3.1 -0.5
v 0.5 3 -0.5
v 0.5 3.1 -0.5
v 0.6 2 -0.5
v 0.6 2.1 -0.5
v 0.6 2.8 -0.5
v 0.6 3 -0.5
v 0.7 2.1 -0.5
v 0.7 2.8 -0.5
v -0.6 2.1 -0.6
v -0.6 2.8 -0.6
v 0.6 2.1 -0.6
v 0.6 2.8 -0.6
v -0.5 0.3 0.3
v -0.1 0.3 0.3
v 0.1 0.3 0.3
v 0.5 0.3 0.3
v -0.5 0.3 -0.2
v -0.1 0.3 -0.2
v 0.1 0.3 -0.2
v 0.5 0.3 -0.2
v -0.1 0.7 0.2
v 0.1 0.7 0.2
v -0.1 0.7 0.1
v 0.1 0.7 0.1
v -0.1 0.7 -0.1
v 0.1 0.7 -0.1
v -0.1 0.7 -0.2
v 0.1 0.7 -0.2
v -0.1 1 0.1
v 0.1 1 0.1
v -0.1 1 -0.1
v 0.1 1 -0.1
v -1.1 1.5 0.2
v -0.8 1.5 0.2
v -0.7 1.5 0.2
v -0.5 1.5 0.2
v 0.5 1.5 0.2
v 0.7 1.5 0.2
v 0.8 1.5 0.2
v 1.1 1.5 0.2
v -1.1 1.5 -0.2
v -0.8 1.5 -0.2
v -0.7 1.5 -0.2
v -0.5 1.5 -0.2
v 0.5 1.5 -0.2
v 0.7 1.5 -0.2
v 0.8 1.5 -0.2
v 1.1 1.5 -0.2
v -0.5 1.9 0.4
v 0.5 1.9 0.4
v -0.6 1.9 0.3
v -0.5 1.9 0.3
v 0.5 1.9 0.3
v 0.6 1.9 0.3
v -0.6 1.9 0.2
v -0.3 1.9 0.2
v 0.3 1.9 0.2
v 0.6 1.9 0.2
v -0.6 1.9 -0.2
v 0.6 1.9 -0.2
v -0.6 1.9 -0.4
v 0.6 1.9 -0.4
v -0.6 2 0.4
v -0.5 2 0.4
v 0.5 2 0.4
v 0.6 2 0.4
v -0.6 2 0.3
v -0.5 2 0.3
v 0.5 2 0.3
v 0.6 2 0.3
v -0.7 2 0
v -0.6 2 0
v 0.6 2 0
v 0.7 2 0
v -0.7 2 -0.4
v -0.6 2 -0.4
v 0.6 2 -0.4
v 0.7 2 -0.4
v -0.6 2 -0.5
v 0.6 2 -0.5
v -0.7 2.1 0.2
v -0.6 2.1 0.2
v 0.6 2.1 0.2
v 0.7 2.1 0.2
v -0.7 2.1 0.1
v -0.6 2.1 0.1
v 0.6 2.1 0.1
v 0.7 2.1 0.1
v -0.7 2.1 -0.4
v -0.6 2.1 -0.4
v 0.6 2.1 -0.4
v 0.7 2.1 -0.4
v -0.7 2.1 -0.5
v -0.6 2.1 -0.5
v 0.6 2.1 -0.5
v 0.7 2.1 -0.5
v -0.6 2.1 -0.6
v 0.6 2.1 -0.6
v -0.7 2.2 0.1
v -0.6 2.2 0.1
v 0.6 2.2 0.1
v 0.7 2.2 0.1
v -0.7 2.2 0
v -0.6 2.2 0
v 0.6 2.2 0
v 0.7 2.2 0
v -0.6 2.3 0.5
v -0.5 2.3 0.5
v -0.1 2.3 0.5
v 0.1 2.3 0.5
v 0.5 2.3 0.5
v 0.6 2.3 0.5
v -0.7 2.3 0.4
v -0.6 2.3 0.4
v -0.5 2.3 0.4
v -0.1 2.3 0.4
v 0.1 2.3 0.4
v 0.5 2.3 0.4
v 0.6 2.3 0.4
v 0.7 2.3 0.4
v -0.7 2.3 0.2
v -0.6 2.3 0.2
v 0.6 2.3 0.2
v 0.7 2.3 0.2
v -0.7 2.4 0.5
v -0.6 2.4 0.5
v -0.5 2.4 0.5
v -0.4 2.4 0.5
v 0.4 2.4 0.5
v 0.5 2.4 0.5
v 0.6 2.4 0.5
v 0.7 2.4 0.5
v -0.7 2.4 0.4
v -0.6 2.4 0.4
v -0.5 2.4 0.4
v -0.4 2.4 0.4
v 0.4 2.4 0.4
v 0.5 2.4 0.4
v 0.6 2.4 0.4
v 0.7 2.4 0.4
v -0.2 2.5 0.5
v -0.1 2.5 0.5
v 0.3 2.5 0.5
v 0.4 2.5 0.5
v -0.2 2.5 0.4
v -0.1 2.5 0.4
v 0.3 2.5 0.4
v 0.4 2.5 0.4
v -0.4 2.6 0.5
v -0.2 2.6 0.5
v 0.1 2.6 0.5
v 0.3 2.6 0.5
v -0.4 2.6 0.4
v -0.2 2.6 0.4
v 0.1 2.6 0.4
v 0.3 2.6 0.4
v -0.4 2.8 0.8
v 0.4 2.8 0.8
v -0.5 2.8 0.6
v -0.4 2.8 0.6
v 0.4 2.8 0.6
v 0.5 2.8 0.6
v -0.5 2.8 0.5
v 0.5 2.8 0.5
v -0.5 0.5 0.3
v -0.1 0.5 0.3
v 0.1 0.5 0.3
v 0.5 0.5 0.3
v -0.5 0.5 0.2
v -0.1 0.5 0.2
v 0.1 0.5 0.2
v 0.5 0.5 0.2
v -1.1 1.9 0.2
v -0.8 1.9 0.2
v -0.7 1.9 0.2
v -0.6 1.9 0.2
v 0.6 1.9 0.2
v 0.7 1.9 0.2
v 0.8 1.9 0.2
v 1.1 1.9 0.2
v -1.1 1.9 -0.2
v -0.8 1.9 -0.2
v -0.7 1.9 -0.2
v -0.6 1.9 -0.2
v 0.6 1.9 -0.2
v 0.7 1.9 -0.2
v 0.8 1.9 -0.2
v 1.1 1.9 -0.2
v -0.7 2.8 0.5
v -0.6 2.8 0.5
v 0.6 2.8 0.5
v 0.7 2.8 0.5
v -0.7 2.8 -0.5
v -0.6 2.8 -0.5
v 0.6 2.8 -0.5
v 0.7 2.8 -0.5
v -0.6 2.8 -0.6
v 0.6 2.8 -0.6
v -0.4 2.9 0.8
v 0.4 2.9 0.8
v -0.5 2.9 0.6
v -0.4 2.9 0.6
v 0.4 2.9 0.6
v 0.5 2.9 0.6
v -0.5 2.9 0.5
v 0.5 2.9 0.5
v -0.6 3 0.5
v -0.5 3 0.5
v 0.5 3 0.5
v 0.6 3 0.5
v -0.6 3 -0.5
v -0.5 3 -0.5
v 0.5 3 -0.5
v 0.6 3 -0.5
v -0.5 3.1 0.5
v 0.5 3.1 0.5
v -0.5 3.1 -0.5
v 0.5 3.1 -0.5

# faces
f 3/1/1 2/1/1 1/1/1
f 4/1/1 2/1/1 3/1/1
f 9/4/1 6/4/1 5/4/1
f 11/1/1 8/1/1 7/1/1
f 12/4/1 10/4/1 9/4/1
f 12/4/1 9/4/1 5/4/1
f 14/1/1 11/1/1 7/1/1
f 15/4/1 12/4/1 11/4/1
f 15/1/1 11/1/1 14/1/1
f 17/4/1 14/4/1 13/4/1
f 17/4/1 15/4/1 14/4/1
f 18/4/1 17/4/1 16/4/1
f 19/4/1 12/4/1 15/4/1
f 19/4/1 17/4/1 18/4/1
f 19/4/1 10/4/1 12/4/1
f 19/4/1 15/4/1 17/4/1
f 25/1/1 21/1/1 20/1/1
f 25/1/1 23/1/1 22/1/1
f 25/1/1 22/1/1 21/1/1
f 26/1/1 23/1/1 25/1/1
f 27/1/1 23/1/1 26/1/1
f 29/1/1 25/1/1 24/1/1
f 29/1/1 26/1/1 25/1/1
f 30/1/1 26/1/1 29/1/1
f 31/4/1 28/4/1 27/4/1
f 32/4/1 28/4/1 31/4/1
f 34/1/1 26/1/1 30/1/1
f 35/1/1 26/1/1 34/1/1
f 37/1/1 29/1/1 24/1/1
f 38/1/1 29/1/1 37/1/1
f 39/4/1 37/4/1 36/4/1
f 40/4/1 37/4/1 39/4/1
f 42/4/1 33/4/1 32/4/1
f 43/4/1 33/4/1 42/4/1
f 44/3/1 42/3/1 41/3/1
f 45/3/1 42/3/1 44/3/1
f 48/9/1 47/9/1 46/9/1
f 49/9/1 47/9/1 48/9/1
f 50/9/1 47/9/1 49/9/1
f 51/6/1 50/6/1 49/6/1
f 52/6/1 50/6/1 51/6/1
f 53/7/1 52/7/1 51/7/1
f 54/7/1 52/7/1 53/7/1
f 55/3/1 54/3/1 53/3/1
f 56/3/1 54/3/1 55/3/1
f 59/1/1 58/1/1 57/1/1
f 60/1/1 58/1/1 59/1/1
f 63/3/1 62/3/1 61/3/1
f 64/3/1 62/3/1 63/3/1
f 67/3/1 66/3/1 65/3/1
f 68/3/1 66/3/1 67/3/1
f 71/3/1 70/3/1 69/3/1
f 72/3/1 70/3/1 71/3/1
f 75/4/1 74/4/1 73/4/1
f 76/4/1 74/4/1 75/4/1
f 79/4/1 78/4/1 77/4/1
f 80/4/1 78/4/1 79/4/1
f 83/9/1 82/9/1 81/9/1
f 84/9/1 82/9/1 83/9/1
f 85/9/1 82/9/1 84/9/1
f 86/6/1 85/6/1 84/6/1
f 87/6/1 85/6/1 86/6/1
f 88/6/1 85/6/1 87/6/1
f 89/6/1 85/6/1 88/6/1
f 90/6/1 88/6/1 87/6/1
f 91/6/1 88/6/1 90/6/1
f 94/4/1 93/4/1 92/4/1
f 95/4/1 93/4/1 94/4/1
f 98/4/1 97/4/1 96/4/1
f 99/4/1 97/4/1 98/4/1
f 102/4/1 101/4/1 100/4/1
f 103/4/1 101/4/1 102/4/1
f 104/4/2 105/4/2 106/4/2
f 106/4/2 105/4/2 107/4/2
f 108/4/2 109/4/2 110/4/2
f 110/4/2 109/4/2 111/4/2
f 112/9/2 113/9/2 114/9/2
f 114/9/2 113/9/2 115/9/2
f 115/9/2 113/9/2 116/9/2
f 115/6/2 116/6/2 117/6/2
f 117/6/2 116/6/2 118/6/2
f 118/6/2 116/6/2 119/6/2
f 119/6/2 116/6/2 120/6/2
f 118/6/2 119/6/2 121/6/2
f 121/6/2 119/6/2 122/6/2
f 123/4/2 124/4/2 125/4/2
f 125/4/2 124/4/2 126/4/2
f 127/3/2 128/3/2 129/3/2
f 129/3/2 128/3/2 130/3/2
f 131/9/2 132/9/2 133/9/2
f 133/9/2 132/9/2 134/9/2
f 134/9/2 132/9/2 135/9/2
f 134/6/2 135/6/2 136/6/2
f 136/6/2 135/6/2 137/6/2
f 136/7/2 137/7/2 138/7/2
f 138/7/2 137/7/2 139/7/2
f 138/3/2 139/3/2 140/3/2
f 140/3/2 139/3/2 141/3/2
f 142/1/2 143/1/2 144/1/2
f 144/1/2 143/1/2 145/1/2
f 146/3/2 147/3/2 148/3/2
f 148/3/2 147/3/2 149/3/2
f 150/3/2 151/3/2 152/3/2
f 152/3/2 151/3/2 153/3/2
f 154/1/2 155/1/2 159/1/2
f 156/1/2 157/1/2 159/1/2
f 155/1/2 156/1/2 159/1/2
f 159/1/2 157/1/2 160/1/2
f 160/1/2 157/1/2 161/1/2
f 158/1/2 159/1/2 163/1/2
f 159/1/2 160/1/2 163/1/2
f 163/1/2 160/1/2 164/1/2
f 161/4/2 162/4/2 165/4/2
f 165/4/2 162/4/2 166/4/2
f 164/1/2 160/1/2 168/1/2
f 168/1/2 160/1/2 169/1/2
f 158/1/2 163/1/2 171/1/2
f 171/1/2 163/1/2 172/1/2
f 170/4/2 171/4/2 173/4/2
f 173/4/2 171/4/2 174/4/2
f 166/4/2 167/4/2 176/4/2
f 176/4/2 167/4/2 177/4/2
f 175/3/2 176/3/2 178/3/2
f 178/3/2 176/3/2 179/3/2
f 180/4/2 181/4/2 184/4/2
f 182/1/2 183/1/2 186/1/2
f 184/4/2 185/4/2 187/4/2
f 180/4/2 184/4/2 187/4/2
f 182/1/2 186/1/2 189/1/2
f 186/4/2 187/4/2 190/4/2
f 189/1/2 186/1/2 190/1/2
f 188/4/2 189/4/2 192/4/2
f 189/4/2 190/4/2 192/4/2
f 191/4/2 192/4/2 193/4/2
f 190/4/2 187/4/2 194/4/2
f 193/4/2 192/4/2 194/4/2
f 187/4/2 185/4/2 194/4/2
f 192/4/2 190/4/2 194/4/2
f 195/1/2 196/1/2 197/1/2
f 197/1/2 196/1/2 198/1/2
f 201/3/3 200/3/3 199/3/3
f 202/3/3 200/3/3 201/3/3
f 205/3/3 204/3/3 203/3/3
f 206/3/3 204/3/3 205/3/3
f 209/3/3 208/3/3 207/3/3
f 210/3/3 208/3/3 209/3/3
f 214/4/3 212/4/3 211/4/3
f 215/4/3 212/4/3 214/4/3
f 217/4/3 214/4/3 213/4/3
f 217/4/3 215/4/3 214/4/3
f 218/4/3 215/4/3 217/4/3
f 219/3/3 216/3/3 215/3/3
f 219/4/3 215/4/3 218/4/3
f 220/3/3 216/3/3 219/3/3
f 221/3/3 216/3/3 220/3/3
f 223/4/3 219/4/3 218/4/3
f 224/4/3 219/4/3 223/4/3
f 226/4/3 219/4/3 224/4/3
f 228/4/3 226/4/3 225/4/3
f 229/4/3 228/4/3 227/4/3
f 230/4/3 219/4/3 226/4/3
f 230/4/3 228/4/3 229/4/3
f 230/4/3 226/4/3 228/4/3
f 232/4/3 219/4/3 230/4/3
f 234/4/3 232/4/3 231/4/3
f 236/4/3 234/4/3 233/4/3
f 237/4/3 219/4/3 232/4/3
f 237/4/3 232/4/3 234/4/3
f 237/4/3 234/4/3 236/4/3
f 238/3/3 222/3/3 221/3/3
f 238/3/3 221/3/3 220/3/3
f 239/3/3 222/3/3 238/3/3
f 240/3/3 222/3/3 239/3/3
f 241/4/3 237/4/3 236/4/3
f 241/4/3 236/4/3 235/4/3
f 242/4/3 237/4/3 241/4/3
f 243/3/3 239/3/3 238/3/3
f 243/4/3 237/4/3 242/4/3
f 243/3/3 238/3/3 237/3/3
f 244/3/3 239/3/3 243/3/3
f 245/4/3 243/4/3 242/4/3
f 246/4/3 243/4/3 245/4/3
f 250/4/3 248/4/3 247/4/3
f 251/4/3 248/4/3 250/4/3
f 253/1/3 250/1/3 249/1/3
f 254/1/3 250/1/3 253/1/3
f 255/1/3 250/1/3 254/1/3
f 257/2/3 254/2/3 253/2/3
f 257/1/3 256/1/3 255/1/3
f 257/1/3 255/1/3 254/1/3
f 258/1/3 256/1/3 257/1/3
f 259/1/3 256/1/3 258/1/3
f 261/1/3 253/1/3 252/1/3
f 261/2/3 257/2/3 253/2/3
f 262/10/3 258/10/3 257/10/3
f 262/2/3 257/2/3 261/2/3
f 263/1/3 262/1/3 261/1/3
f 263/10/3 258/10/3 262/10/3
f 264/8/3 259/8/3 258/8/3
f 264/10/3 258/10/3 263/10/3
f 265/1/3 260/1/3 259/1/3
f 265/8/3 259/8/3 264/8/3
f 266/1/3 260/1/3 265/1/3
f 267/1/3 260/1/3 266/1/3
f 268/1/3 264/1/3 263/1/3
f 268/1/3 265/1/3 264/1/3
f 268/1/3 266/1/3 265/1/3
f 269/1/3 266/1/3 268/1/3
f 270/1/3 268/1/3 263/1/3
f 272/1/3 263/1/3 261/1/3
f 272/1/3 271/1/3 270/1/3
f 272/1/3 270/1/3 263/1/3
f 273/1/3 271/1/3 272/1/3
f 274/1/3 271/1/3 273/1/3
f 275/1/3 261/1/3 252/1/3
f 275/1/3 272/1/3 261/1/3
f 276/10/3 273/10/3 272/10/3
f 276/1/3 272/1/3 275/1/3
f 277/1/3 271/1/3 274/1/3
f 278/1/3 271/1/3 277/1/3
f 279/10/3 273/10/3 276/10/3
f 279/2/3 276/2/3 275/2/3
f 280/8/3 274/8/3 273/8/3
f 280/10/3 273/10/3 279/10/3
f 281/1/3 277/1/3 274/1/3
f 281/8/3 274/8/3 280/8/3
f 282/1/3 277/1/3 281/1/3
f 283/1/3 275/1/3 252/1/3
f 284/2/3 279/2/3 275/2/3
f 284/1/3 275/1/3 283/1/3
f 285/1/3 280/1/3 279/1/3
f 285/2/3 279/2/3 284/2/3
f 285/1/3 281/1/3 280/1/3
f 286/1/3 281/1/3 285/1/3
f 287/1/3 281/1/3 286/1/3
f 288/1/3 285/1/3 284/1/3
f 288/1/3 286/1/3 285/1/3
f 289/1/3 286/1/3 288/1/3
f 291/4/3 290/4/3 289/4/3
f 292/4/3 290/4/3 291/4/3
f 297/1/3 294/1/3 293/1/3
f 298/1/3 294/1/3 297/1/3
f 299/9/3 296/9/3 295/9/3
f 300/9/3 296/9/3 299/9/3
f 303/9/3 302/9/3 301/9/3
f 304/9/3 302/9/3 303/9/3
f 307/1/3 306/1/3 305/1/3
f 308/1/3 306/1/3 307/1/3
f 311/1/3 310/1/3 309/1/3
f 312/1/3 310/1/3 311/1/3
f 313/5/3 312/5/3 311/5/3
f 314/5/3 312/5/3 313/5/3
f 317/3/3 314/3/3 313/3/3
f 318/1/3 316/1/3 315/1/3
f 319/1/3 316/1/3 318/1/3
f 323/3/3 317/3/3 313/3/3
f 324/3/3 317/3/3 323/3/3
f 324/3/3 323/3/3 322/3/3
f 325/3/3 317/3/3 324/3/3
f 326/3/3 324/3/3 322/3/3
f 326/8/3 325/8/3 324/8/3
f 327/8/3 325/8/3 326/8/3
f 328/6/3 321/6/3 320/6/3
f 329/7/3 322/7/3 321/7/3
f 329/6/3 321/6/3 328/6/3
f 330/3/3 326/3/3 322/3/3
f 330/7/3 322/7/3 329/7/3
f 330/3/3 327/3/3 326/3/3
f 331/8/3 325/8/3 327/8/3
f 331/3/3 327/3/3 330/3/3
f 332/8/3 325/8/3 331/8/3
f 334/7/3 330/7/3 329/7/3
f 335/5/3 332/5/3 331/5/3
f 335/5/3 331/5/3 330/5/3
f 335/7/3 330/7/3 334/7/3
f 336/5/3 332/5/3 335/5/3
f 337/8/3 325/8/3 332/8/3
f 337/5/3 332/5/3 336/5/3
f 338/3/3 336/3/3 335/3/3
f 339/8/3 337/8/3 336/8/3
f 339/3/3 336/3/3 338/3/3
f 340/3/3 338/3/3 335/3/3
f 340/8/3 339/8/3 338/8/3
f 341/8/3 325/8/3 337/8/3
f 341/8/3 339/8/3 340/8/3
f 341/8/3 337/8/3 339/8/3
f 342/6/3 334/6/3 333/6/3
f 343/7/3 335/7/3 334/7/3
f 343/6/3 334/6/3 342/6/3
f 344/3/3 340/3/3 335/3/3
f 344/7/3 335/7/3 343/7/3
f 344/3/3 341/3/3 340/3/3
f 345/3/3 341/3/3 344/3/3
f 346/3/3 341/3/3 345/3/3
f 349/3/3 346/3/3 345/3/3
f 350/3/3 346/3/3 349/3/3
f 351/1/3 348/1/3 347/1/3
f 352/1/3 348/1/3 351/1/3
f 353/5/3 350/5/3 349/5/3
f 354/5/3 350/5/3 353/5/3
f 355/1/3 354/1/3 353/1/3
f 356/1/3 354/1/3 355/1/3
f 359/4/3 358/4/3 357/4/3
f 360/4/3 358/4/3 359/4/3
f 363/4/3 362/4/3 361/4/3
f 364/4/3 362/4/3 363/4/3
f 367/7/3 366/7/3 365/7/3
f 368/7/3 366/7/3 367/7/3
f 369/1/4 370/1/4 371/1/4
f 371/1/4 370/1/4 372/1/4
f 373/7/4 374/7/4 375/7/4
f 375/7/4 374/7/4 376/7/4
f 377/1/4 378/1/4 379/1/4
f 379/1/4 378/1/4 380/1/4
f 381/1/4 382/1/4 383/1/4
f 383/1/4 382/1/4 384/1/4
f 383/5/4 384/5/4 385/5/4
f 385/5/4 384/5/4 386/5/4
f 385/3/4 386/3/4 387/3/4
f 385/3/4 387/3/4 392/3/4
f 388/9/4 389/9/4 393/9/4
f 389/6/4 390/6/4 394/6/4
f 393/9/4 389/9/4 394/9/4
f 390/7/4 391/7/4 395/7/4
f 394/6/4 390/6/4 395/6/4
f 395/7/4 391/7/4 398/7/4
f 396/9/4 397/9/4 399/9/4
f 397/6/4 398/6/4 400/6/4
f 399/9/4 397/9/4 400/9/4
f 398/7/4 391/7/4 401/7/4
f 400/6/4 398/6/4 401/6/4
f 391/3/4 392/3/4 402/3/4
f 401/7/4 391/7/4 402/7/4
f 392/3/4 387/3/4 403/3/4
f 402/3/4 392/3/4 403/3/4
f 403/3/4 387/3/4 404/3/4
f 403/3/4 404/3/4 405/3/4
f 405/3/4 404/3/4 406/3/4
f 405/5/4 406/5/4 407/5/4
f 407/5/4 406/5/4 408/5/4
f 407/1/4 408/1/4 409/1/4
f 409/1/4 408/1/4 410/1/4
f 411/4/4 412/4/4 414/4/4
f 414/4/4 412/4/4 415/4/4
f 413/1/4 414/1/4 416/1/4
f 416/1/4 414/1/4 417/1/4
f 417/4/4 418/4/4 419/4/4
f 419/4/4 418/4/4 420/4/4
f 421/4/4 422/4/4 424/4/4
f 424/4/4 422/4/4 425/4/4
f 425/3/4 426/3/4 427/3/4
f 425/3/4 427/3/4 429/3/4
f 427/3/4 428/3/4 429/3/4
f 429/3/4 428/3/4 430/3/4
f 423/4/4 424/4/4 431/4/4
f 431/4/4 424/4/4 432/4/4
f 425/3/4 429/3/4 433/3/4
f 433/3/4 429/3/4 434/3/4
f 432/4/4 433/4/4 435/4/4
f 435/4/4 433/4/4 436/4/4
f 437/4/4 438/4/4 439/4/4
f 439/4/4 438/4/4 440/4/4
f 445/9/5 442/9/5 441/9/5
f 446/9/5 442/9/5 445/9/5
f 447/9/5 444/9/5 443/9/5
f 448/9/5 444/9/5 447/9/5
f 451/7/5 450/7/5 449/7/5
f 452/7/5 450/7/5 451/7/5
f 455/7/5 454/7/5 453/7/5
f 456/7/5 454/7/5 455/7/5
f 459/6/5 458/6/5 457/6/5
f 460/6/5 458/6/5 459/6/5
f 469/1/5 462/1/5 461/1/5
f 470/5/5 463/5/5 462/5/5
f 470/1/5 462/1/5 469/1/5
f 471/3/5 464/3/5 463/3/5
f 471/5/5 463/5/5 470/5/5
f 472/3/5 464/3/5 471/3/5
f 473/3/5 466/3/5 465/3/5
f 474/5/5 467/5/5 466/5/5
f 474/3/5 466/3/5 473/3/5
f 475/1/5 468/1/5 467/1/5
f 475/5/5 467/5/5 474/5/5
f 476/1/5 468/1/5 475/1/5
f 480/1/5 478/1/5 477/1/5
f 481/1/5 478/1/5 480/1/5
f 483/1/5 480/1/5 479/1/5
f 483/1/5 482/1/5 481/1/5
f 483/1/5 481/1/5 480/1/5
f 484/1/5 482/1/5 483/1/5
f 485/1/5 482/1/5 484/1/5
f 486/1/5 482/1/5 485/1/5
f 489/1/5 488/1/5 487/1/5
f 490/1/5 488/1/5 489/1/5
f 495/1/5 492/1/5 491/1/5
f 496/1/5 492/1/5 495/1/5
f 497/1/5 494/1/5 493/1/5
f 498/1/5 494/1/5 497/1/5
f 503/4/5 500/4/5 499/4/5
f 504/4/5 500/4/5 503/4/5
f 505/4/5 502/4/5 501/4/5
f 506/4/5 502/4/5 505/4/5
f 507/4/5 505/4/5 504/4/5
f 508/4/5 505/4/5 507/4/5
f 513/1/5 510/1/5 509/1/5
f 514/1/5 510/1/5 513/1/5
f 515/1/5 512/1/5 511/1/5
f 516/1/5 512/1/5 515/1/5
f 521/4/5 518/4/5 517/4/5
f 522/4/5 518/4/5 521/4/5
f 523/4/5 520/4/5 519/4/5
f 524/4/5 520/4/5 523/4/5
f 525/4/5 523/4/5 522/4/5
f 526/4/5 523/4/5 525/4/5
f 531/4/5 528/4/5 527/4/5
f 532/4/5 528/4/5 531/4/5
f 533/4/5 530/4/5 529/4/5
f 534/4/5 530/4/5 533/4/5
f 542/4/5 536/4/5 535/4/5
f 543/4/5 536/4/5 542/4/5
f 544/4/5 538/4/5 537/4/5
f 545/4/5 538/4/5 544/4/5
f 546/4/5 540/4/5 539/4/5
f 547/4/5 540/4/5 546/4/5
f 549/4/5 542/4/5 541/4/5
f 550/4/5 542/4/5 549/4/5
f 551/4/5 548/4/5 547/4/5
f 552/4/5 548/4/5 551/4/5
f 561/4/5 554/4/5 553/4/5
f 562/4/5 554/4/5 561/4/5
f 563/4/5 556/4/5 555/4/5
f 564/4/5 556/4/5 563/4/5
f 565/4/5 558/4/5 557/4/5
f 566/4/5 558/4/5 565/4/5
f 567/4/5 560/4/5 559/4/5
f 568/4/5 560/4/5 567/4/5
f 573/4/5 570/4/5 569/4/5
f 574/4/5 570/4/5 573/4/5
f 575/4/5 572/4/5 571/4/5
f 576/4/5 572/4/5 575/4/5
f 581/4/5 578/4/5 577/4/5
f 582/4/5 578/4/5 581/4/5
f 583/4/5 580/4/5 579/4/5
f 584/4/5 580/4/5 583/4/5
f 588/3/5 586/3/5 585/3/5
f 589/3/5 586/3/5 588/3/5
f 591/3/5 588/3/5 587/3/5
f 591/3/5 590/3/5 589/3/5
f 591/3/5 589/3/5 588/3/5
f 592/3/5 590/3/5 591/3/5
f 593/9/6 594/9/6 597/9/6
f 597/9/6 594/9/6 598/9/6
f 595/9/6 596/9/6 599/9/6
f 599/9/6 596/9/6 600/9/6
f 601/1/6 602/1/6 609/1/6
f 602/5/6 603/5/6 610/5/6
f 609/1/6 602/1/6 610/1/6
f 603/3/6 604/3/6 611/3/6
f 610/5/6 603/5/6 611/5/6
f 611/3/6 604/3/6 612/3/6
f 605/3/6 606/3/6 613/3/6
f 606/5/6 607/5/6 614/5/6
f 613/3/6 606/3/6 614/3/6
f 607/1/6 608/1/6 615/1/6
f 614/5/6 607/5/6 615/5/6
f 615/1/6 608/1/6 616/1/6
f 617/4/6 618/4/6 621/4/6
f 621/4/6 618/4/6 622/4/6
f 619/4/6 620/4/6 623/4/6
f 623/4/6 620/4/6 624/4/6
f 622/4/6 623/4/6 625/4/6
f 625/4/6 623/4/6 626/4/6
f 627/3/6 628/3/6 630/3/6
f 630/3/6 628/3/6 631/3/6
f 629/3/6 630/3/6 633/3/6
f 631/3/6 632/3/6 633/3/6
f 630/3/6 631/3/6 633/3/6
f 633/3/6 632/3/6 634/3/6
f 635/3/6 636/3/6 639/3/6
f 639/3/6 636/3/6 640/3/6
f 637/3/6 638/3/6 641/3/6
f 641/3/6 638/3/6 642/3/6
f 643/3/6 644/3/6 645/3/6
f 645/3/6 644/3/6 646/3/6
