# MagicaVoxel @ Ephtracy

# group
o 

# material
mtllib penguin07_rightArm.mtl
usemtl palette

# normals
vn -1 0 0
vn 1 0 0
vn 0 0 1
vn 0 0 -1
vn 0 -1 0
vn 0 1 0

# texcoords
vt 0.400391 0.5
vt 0.962891 0.5

# verts
v -1.2 0.4 0.0999999
v -1.2 0.4 -0.1
v -1.2 0.5 0.2
v -1.2 0.5 0.0999999
v -1.2 0.5 -0.1
v -1.2 0.5 -0.2
v -1.2 2 0.2
v -1.2 2 -0.2
v -1.1 2 0.2
v -1.1 2 -0.2
v -1.1 2.1 0.2
v -1.1 2.1 0.0999999
v -1.1 2.1 -0.1
v -1.1 2.1 -0.2
v -1.1 2.2 0.0999999
v -1.1 2.2 -0.1
v -1.1 0.4 0.0999999
v -1.1 0.4 -0.1
v -1.1 0.5 0.2
v -1.1 0.5 0.0999999
v -1.1 0.5 -0.1
v -1.1 0.5 -0.2
v -1.1 0.6 0.2
v -1.1 0.6 0.0999999
v -1.1 0.6 -0.1
v -1.1 0.6 -0.2
v -1 0.5 0.0999999
v -1 0.5 -0.1
v -1 0.6 0.2
v -1 0.6 0.0999999
v -1 0.6 -0.1
v -1 0.6 -0.2
v -1 0.8 0.0999999
v -1 0.8 -0.1
v -1 1.7 0.2
v -1 1.7 0.0999999
v -1 1.7 -0.1
v -1 1.7 -0.2
v -1 2.1 0.2
v -1 2.1 0.0999999
v -1 2.1 -0.1
v -1 2.1 -0.2
v -1 2.2 0.0999999
v -1 2.2 -0.1
v -1.2 0.5 0.2
v -1.2 2 0.2
v -1.1 0.5 0.2
v -1.1 0.6 0.2
v -1.1 1.7 0.2
v -1.1 2 0.2
v -1.1 2.1 0.2
v -1 0.6 0.2
v -1 1.7 0.2
v -1 2.1 0.2
v -1.2 0.4 0.0999999
v -1.2 0.5 0.0999999
v -1.1 0.4 0.0999999
v -1.1 0.5 0.0999999
v -1.1 0.6 0.0999999
v -1.1 2.1 0.0999999
v -1.1 2.2 0.0999999
v -1 0.5 0.0999999
v -1 0.6 0.0999999
v -1 2.1 0.0999999
v -1 2.2 0.0999999
v -1.2 0.4 -0.1
v -1.2 0.5 -0.1
v -1.1 0.4 -0.1
v -1.1 0.5 -0.1
v -1.1 0.6 -0.1
v -1.1 2.1 -0.1
v -1.1 2.2 -0.1
v -1 0.5 -0.1
v -1 0.6 -0.1
v -1 2.1 -0.1
v -1 2.2 -0.1
v -1.2 0.5 -0.2
v -1.2 2 -0.2
v -1.1 0.5 -0.2
v -1.1 0.6 -0.2
v -1.1 1.7 -0.2
v -1.1 2 -0.2
v -1.1 2.1 -0.2
v -1 0.6 -0.2
v -1 1.7 -0.2
v -1 2.1 -0.2
v -1.2 0.4 0.0999999
v -1.1 0.4 0.0999999
v -1.2 0.4 -0.1
v -1.1 0.4 -0.1
v -1.2 0.5 0.2
v -1.1 0.5 0.2
v -1.2 0.5 0.0999999
v -1.1 0.5 0.0999999
v -1 0.5 0.0999999
v -1.2 0.5 -0.1
v -1.1 0.5 -0.1
v -1 0.5 -0.1
v -1.2 0.5 -0.2
v -1.1 0.5 -0.2
v -1.1 0.6 0.2
v -1 0.6 0.2
v -1.1 0.6 0.0999999
v -1 0.6 0.0999999
v -1.1 0.6 -0.1
v -1 0.6 -0.1
v -1.1 0.6 -0.2
v -1 0.6 -0.2
v -1.2 2 0.2
v -1.1 2 0.2
v -1.2 2 -0.2
v -1.1 2 -0.2
v -1.1 2.1 0.2
v -1 2.1 0.2
v -1.1 2.1 0.0999999
v -1 2.1 0.0999999
v -1.1 2.1 -0.1
v -1 2.1 -0.1
v -1.1 2.1 -0.2
v -1 2.1 -0.2
v -1.1 2.2 0.0999999
v -1 2.2 0.0999999
v -1.1 2.2 -0.1
v -1 2.2 -0.1

# faces
f 4/1/1 2/1/1 1/1/1
f 5/1/1 2/1/1 4/1/1
f 7/1/1 4/1/1 3/1/1
f 7/1/1 6/1/1 5/1/1
f 7/1/1 5/1/1 4/1/1
f 8/1/1 6/1/1 7/1/1
f 11/1/1 10/1/1 9/1/1
f 12/1/1 10/1/1 11/1/1
f 13/1/1 10/1/1 12/1/1
f 14/1/1 10/1/1 13/1/1
f 15/1/1 13/1/1 12/1/1
f 16/1/1 13/1/1 15/1/1
f 17/1/2 18/1/2 20/1/2
f 20/1/2 18/1/2 21/1/2
f 19/1/2 20/1/2 23/1/2
f 23/1/2 20/1/2 24/1/2
f 21/1/2 22/1/2 25/1/2
f 25/1/2 22/1/2 26/1/2
f 27/2/2 28/2/2 30/2/2
f 30/2/2 28/2/2 31/2/2
f 29/2/2 30/2/2 33/2/2
f 31/2/2 32/2/2 33/2/2
f 30/2/2 31/2/2 33/2/2
f 33/2/2 32/2/2 34/2/2
f 29/2/2 33/2/2 35/2/2
f 33/1/2 34/1/2 36/1/2
f 35/2/2 33/2/2 36/2/2
f 34/2/2 32/2/2 37/2/2
f 36/1/2 34/1/2 37/1/2
f 37/2/2 32/2/2 38/2/2
f 35/1/2 36/1/2 39/1/2
f 36/1/2 37/1/2 39/1/2
f 37/1/2 38/1/2 39/1/2
f 39/1/2 38/1/2 40/1/2
f 40/1/2 38/1/2 41/1/2
f 41/1/2 38/1/2 42/1/2
f 40/1/2 41/1/2 43/1/2
f 43/1/2 41/1/2 44/1/2
f 47/1/3 46/1/3 45/1/3
f 48/1/3 46/1/3 47/1/3
f 49/1/3 46/1/3 48/1/3
f 50/1/3 46/1/3 49/1/3
f 52/2/3 49/2/3 48/2/3
f 53/1/3 51/1/3 50/1/3
f 53/2/3 49/2/3 52/2/3
f 53/1/3 50/1/3 49/1/3
f 54/1/3 51/1/3 53/1/3
f 57/1/3 56/1/3 55/1/3
f 58/1/3 56/1/3 57/1/3
f 62/2/3 59/2/3 58/2/3
f 63/2/3 59/2/3 62/2/3
f 64/1/3 61/1/3 60/1/3
f 65/1/3 61/1/3 64/1/3
f 66/1/4 67/1/4 68/1/4
f 68/1/4 67/1/4 69/1/4
f 69/2/4 70/2/4 73/2/4
f 73/2/4 70/2/4 74/2/4
f 71/1/4 72/1/4 75/1/4
f 75/1/4 72/1/4 76/1/4
f 77/1/4 78/1/4 79/1/4
f 79/1/4 78/1/4 80/1/4
f 80/1/4 78/1/4 81/1/4
f 81/1/4 78/1/4 82/1/4
f 80/2/4 81/2/4 84/2/4
f 82/1/4 83/1/4 85/1/4
f 84/2/4 81/2/4 85/2/4
f 81/1/4 82/1/4 85/1/4
f 85/1/4 83/1/4 86/1/4
f 89/1/5 88/1/5 87/1/5
f 90/1/5 88/1/5 89/1/5
f 93/1/5 92/1/5 91/1/5
f 94/1/5 92/1/5 93/1/5
f 97/2/5 95/2/5 94/2/5
f 98/2/5 95/2/5 97/2/5
f 99/1/5 97/1/5 96/1/5
f 100/1/5 97/1/5 99/1/5
f 103/2/5 102/2/5 101/2/5
f 104/2/5 102/2/5 103/2/5
f 107/2/5 106/2/5 105/2/5
f 108/2/5 106/2/5 107/2/5
f 109/1/6 110/1/6 111/1/6
f 111/1/6 110/1/6 112/1/6
f 113/1/6 114/1/6 115/1/6
f 115/1/6 114/1/6 116/1/6
f 117/1/6 118/1/6 119/1/6
f 119/1/6 118/1/6 120/1/6
f 121/1/6 122/1/6 123/1/6
f 123/1/6 122/1/6 124/1/6
